<?xml version="1.0" encoding="utf-8" standalone="no"?>
<!DOCTYPE svg PUBLIC "-//W3C//DTD SVG 1.1//EN"
  "http://www.w3.org/Graphics/SVG/1.1/DTD/svg11.dtd">
<svg xmlns:xlink="http://www.w3.org/1999/xlink" width="371.52pt" height="280.512pt" viewBox="0 0 371.52 280.512" xmlns="http://www.w3.org/2000/svg" version="1.1">
 <metadata>
  <rdf:RDF xmlns:dc="http://purl.org/dc/elements/1.1/" xmlns:cc="http://creativecommons.org/ns#" xmlns:rdf="http://www.w3.org/1999/02/22-rdf-syntax-ns#">
   <cc:Work>
    <dc:type rdf:resource="http://purl.org/dc/dcmitype/StillImage"/>
    <dc:date>2022-10-15T07:45:57.845356</dc:date>
    <dc:format>image/svg+xml</dc:format>
    <dc:creator>
     <cc:Agent>
      <dc:title>Matplotlib v3.6.1, https://matplotlib.org/</dc:title>
     </cc:Agent>
    </dc:creator>
   </cc:Work>
  </rdf:RDF>
 </metadata>
 <defs>
  <style type="text/css">*{stroke-linejoin: round; stroke-linecap: butt}</style>
 </defs>
 <g id="figure_1">
  <g id="patch_1">
   <path d="M 0 280.512 
L 371.52 280.512 
L 371.52 0 
L 0 0 
z
" style="fill: #ffffff"/>
  </g>
  <g id="axes_1">
   <g id="patch_2">
    <path d="M 7.2 273.312 
L 364.32 273.312 
L 364.32 7.2 
L 7.2 7.2 
z
" style="fill: #ffffff"/>
   </g>
   <g id="patch_3">
    <path d="M 325.265838 47.758334 
Q 266.966449 70.660616 209.707679 93.154101 
" clip-path="url(#p732fc7e204)" style="fill: none; stroke: #000000; stroke-linecap: round"/>
    <path d="M 218.616287 93.952027 
L 209.707679 93.154101 
L 215.691185 86.50597 
L 218.616287 93.952027 
z
" clip-path="url(#p732fc7e204)" style="stroke: #000000; stroke-linecap: round"/>
   </g>
   <g id="patch_4">
    <path d="M 331.878631 53.13201 
Q 322.364606 109.115003 313.037899 163.995766 
" clip-path="url(#p732fc7e204)" style="fill: none; stroke: #000000; stroke-linecap: round"/>
    <path d="M 318.3217 156.779018 
L 313.037899 163.995766 
L 310.434782 155.438677 
L 318.3217 156.779018 
z
" clip-path="url(#p732fc7e204)" style="stroke: #000000; stroke-linecap: round"/>
   </g>
   <g id="patch_5">
    <path d="M 44.89782 195.914763 
Q 82.558139 165.189227 119.352163 135.170467 
" clip-path="url(#p732fc7e204)" style="fill: none; stroke: #000000; stroke-linecap: round"/>
    <path d="M 110.624818 137.128389 
L 119.352163 135.170467 
L 115.682094 143.327096 
L 110.624818 137.128389 
z
" clip-path="url(#p732fc7e204)" style="stroke: #000000; stroke-linecap: round"/>
   </g>
   <g id="patch_6">
    <path d="M 45.468433 196.697355 
Q 119.397483 149.058815 192.38672 102.025875 
" clip-path="url(#p732fc7e204)" style="fill: none; stroke: #000000; stroke-linecap: round"/>
    <path d="M 183.495303 102.996808 
L 192.38672 102.025875 
L 187.828616 109.721568 
L 183.495303 102.996808 
z
" clip-path="url(#p732fc7e204)" style="stroke: #000000; stroke-linecap: round"/>
   </g>
   <g id="patch_7">
    <path d="M 42.054018 193.634798 
Q 80.610215 116.28019 118.667666 39.926208 
" clip-path="url(#p732fc7e204)" style="fill: none; stroke: #000000; stroke-linecap: round"/>
    <path d="M 111.51898 45.301735 
L 118.667666 39.926208 
L 118.678875 48.870473 
L 111.51898 45.301735 
z
" clip-path="url(#p732fc7e204)" style="stroke: #000000; stroke-linecap: round"/>
   </g>
   <g id="patch_8">
    <path d="M 134.945412 125.710431 
Q 230.12842 86.789834 324.276566 48.292394 
" clip-path="url(#p732fc7e204)" style="fill: none; stroke: #000000; stroke-linecap: round"/>
    <path d="M 315.357768 47.617832 
L 324.276566 48.292394 
L 318.385637 55.022696 
L 315.357768 47.617832 
z
" clip-path="url(#p732fc7e204)" style="stroke: #000000; stroke-linecap: round"/>
   </g>
   <g id="patch_9">
    <path d="M 120.222082 134.460736 
Q 82.561762 165.186271 45.767738 195.205031 
" clip-path="url(#p732fc7e204)" style="fill: none; stroke: #000000; stroke-linecap: round"/>
    <path d="M 54.495083 193.24711 
L 45.767738 195.205031 
L 49.437808 187.048403 
L 54.495083 193.24711 
z
" clip-path="url(#p732fc7e204)" style="stroke: #000000; stroke-linecap: round"/>
   </g>
   <g id="patch_10">
    <path d="M 130.158607 120.949003 
Q 146.748823 79.639201 162.922378 39.366891 
" clip-path="url(#p732fc7e204)" style="fill: none; stroke: #000000; stroke-linecap: round"/>
    <path d="M 156.229136 45.299893 
L 162.922378 39.366891 
L 163.652834 48.281286 
L 156.229136 45.299893 
z
" clip-path="url(#p732fc7e204)" style="stroke: #000000; stroke-linecap: round"/>
   </g>
   <g id="patch_11">
    <path d="M 175.195521 31.032176 
Q 249.950953 37.441551 323.592437 43.755419 
" clip-path="url(#p732fc7e204)" style="fill: none; stroke: #000000; stroke-linecap: round"/>
    <path d="M 315.963378 39.086644 
L 323.592437 43.755419 
L 315.279982 47.057401 
L 315.963378 39.086644 
z
" clip-path="url(#p732fc7e204)" style="stroke: #000000; stroke-linecap: round"/>
   </g>
   <g id="patch_12">
    <path d="M 161.36985 37.218567 
Q 102.378319 115.839895 44.057795 193.566934 
" clip-path="url(#p732fc7e204)" style="fill: none; stroke: #000000; stroke-linecap: round"/>
    <path d="M 52.058626 189.568597 
L 44.057795 193.566934 
L 45.659624 184.767267 
L 52.058626 189.568597 
z
" clip-path="url(#p732fc7e204)" style="stroke: #000000; stroke-linecap: round"/>
   </g>
   <g id="patch_13">
    <path d="M 170.516217 38.000946 
Q 183.585783 63.51018 196.145544 88.024377 
" clip-path="url(#p732fc7e204)" style="fill: none; stroke: #000000; stroke-linecap: round"/>
    <path d="M 196.057639 79.080537 
L 196.145544 88.024377 
L 188.937729 82.728398 
L 196.057639 79.080537 
z
" clip-path="url(#p732fc7e204)" style="stroke: #000000; stroke-linecap: round"/>
   </g>
   <g id="patch_14">
    <path d="M 208.670104 93.561701 
Q 266.969493 70.65942 324.228264 48.165934 
" clip-path="url(#p732fc7e204)" style="fill: none; stroke: #000000; stroke-linecap: round"/>
    <path d="M 315.319655 47.368008 
L 324.228264 48.165934 
L 318.244757 54.814066 
L 315.319655 47.368008 
z
" clip-path="url(#p732fc7e204)" style="stroke: #000000; stroke-linecap: round"/>
   </g>
   <g id="patch_15">
    <path d="M 192.668845 100.204795 
Q 163.765726 112.859767 135.886775 125.066316 
" clip-path="url(#p732fc7e204)" style="fill: none; stroke: #000000; stroke-linecap: round"/>
    <path d="M 144.819439 125.521838 
L 135.886775 125.066316 
L 141.610791 118.193497 
L 144.819439 125.521838 
z
" clip-path="url(#p732fc7e204)" style="stroke: #000000; stroke-linecap: round"/>
   </g>
   <g id="patch_16">
    <path d="M 196.65623 89.021135 
Q 183.586664 63.5119 171.026902 38.997703 
" clip-path="url(#p732fc7e204)" style="fill: none; stroke: #000000; stroke-linecap: round"/>
    <path d="M 171.114808 47.941543 
L 171.026902 38.997703 
L 178.234717 44.293683 
L 171.114808 47.941543 
z
" clip-path="url(#p732fc7e204)" style="stroke: #000000; stroke-linecap: round"/>
   </g>
   <g id="patch_17">
    <path d="M 193.98876 91.138025 
Q 161.817222 63.951219 130.499637 37.486053 
" clip-path="url(#p732fc7e204)" style="fill: none; stroke: #000000; stroke-linecap: round"/>
    <path d="M 134.028212 45.704882 
L 130.499637 37.486053 
L 139.191845 39.594491 
L 134.028212 45.704882 
z
" clip-path="url(#p732fc7e204)" style="stroke: #000000; stroke-linecap: round"/>
   </g>
   <g id="patch_18">
    <path d="M 201.926658 105.289505 
Q 205.031799 125.410679 207.966421 144.426899 
" clip-path="url(#p732fc7e204)" style="fill: none; stroke: #000000; stroke-linecap: round"/>
    <path d="M 210.699492 135.910425 
L 207.966421 144.426899 
L 202.793085 137.130558 
L 210.699492 135.910425 
z
" clip-path="url(#p732fc7e204)" style="stroke: #000000; stroke-linecap: round"/>
   </g>
   <g id="patch_19">
    <path d="M 196.766281 104.49368 
Q 162.6531 173.476473 129.035518 241.457078 
" clip-path="url(#p732fc7e204)" style="fill: none; stroke: #000000; stroke-linecap: round"/>
    <path d="M 136.167277 236.059113 
L 129.035518 241.457078 
L 128.996201 232.512893 
L 136.167277 236.059113 
z
" clip-path="url(#p732fc7e204)" style="stroke: #000000; stroke-linecap: round"/>
   </g>
   <g id="patch_20">
    <path d="M 200.407232 105.390856 
Q 199.117544 161.674584 197.853468 216.840572 
" clip-path="url(#p732fc7e204)" style="fill: none; stroke: #000000; stroke-linecap: round"/>
    <path d="M 202.035682 208.934303 
L 197.853468 216.840572 
L 194.037782 208.751039 
L 202.035682 208.934303 
z
" clip-path="url(#p732fc7e204)" style="stroke: #000000; stroke-linecap: round"/>
   </g>
   <g id="patch_21">
    <path d="M 129.937061 36.397424 
Q 217.214349 102.403009 303.599903 167.734199 
" clip-path="url(#p732fc7e204)" style="fill: none; stroke: #000000; stroke-linecap: round"/>
    <path d="M 299.631964 159.718249 
L 303.599903 167.734199 
L 294.806379 166.09898 
L 299.631964 159.718249 
z
" clip-path="url(#p732fc7e204)" style="stroke: #000000; stroke-linecap: round"/>
   </g>
   <g id="patch_22">
    <path d="M 215.946383 148.35313 
Q 271.394569 99.339071 326.005079 51.065485 
" clip-path="url(#p732fc7e204)" style="fill: none; stroke: #000000; stroke-linecap: round"/>
    <path d="M 317.361966 53.366919 
L 326.005079 51.065485 
L 322.660358 59.360836 
L 317.361966 53.366919 
z
" clip-path="url(#p732fc7e204)" style="stroke: #000000; stroke-linecap: round"/>
   </g>
   <g id="patch_23">
    <path d="M 201.107888 156.39494 
Q 123.823945 177.738239 47.617695 198.783915 
" clip-path="url(#p732fc7e204)" style="fill: none; stroke: #000000; stroke-linecap: round"/>
    <path d="M 56.393842 200.509964 
L 47.617695 198.783915 
L 54.264222 192.798627 
L 56.393842 200.509964 
z
" clip-path="url(#p732fc7e204)" style="stroke: #000000; stroke-linecap: round"/>
   </g>
   <g id="patch_24">
    <path d="M 206.623688 145.909732 
Q 188.01264 92.192184 169.767603 39.531061 
" clip-path="url(#p732fc7e204)" style="fill: none; stroke: #000000; stroke-linecap: round"/>
    <path d="M 168.606977 48.399711 
L 169.767603 39.531061 
L 176.166147 45.780752 
L 168.606977 48.399711 
z
" clip-path="url(#p732fc7e204)" style="stroke: #000000; stroke-linecap: round"/>
   </g>
   <g id="patch_25">
    <path d="M 208.063457 162.637354 
Q 203.543456 190.354036 199.203405 216.967261 
" clip-path="url(#p732fc7e204)" style="fill: none; stroke: #000000; stroke-linecap: round"/>
    <path d="M 204.438874 209.715374 
L 199.203405 216.967261 
L 196.543177 208.427754 
L 204.438874 209.715374 
z
" clip-path="url(#p732fc7e204)" style="stroke: #000000; stroke-linecap: round"/>
   </g>
   <g id="patch_26">
    <path d="M 126.321643 241.712623 
Q 145.634518 140.255997 164.738322 39.897683 
" clip-path="url(#p732fc7e204)" style="fill: none; stroke: #000000; stroke-linecap: round"/>
    <path d="M 159.312896 47.008573 
L 164.738322 39.897683 
L 167.171778 48.504558 
L 159.312896 47.008573 
z
" clip-path="url(#p732fc7e204)" style="stroke: #000000; stroke-linecap: round"/>
   </g>
   <g id="patch_27">
    <path d="M 130.431433 243.721551 
Q 167.080594 202.153548 202.990362 161.424174 
" clip-path="url(#p732fc7e204)" style="fill: none; stroke: #000000; stroke-linecap: round"/>
    <path d="M 194.69933 164.779587 
L 202.990362 161.424174 
L 200.700073 170.070247 
L 194.69933 164.779587 
z
" clip-path="url(#p732fc7e204)" style="stroke: #000000; stroke-linecap: round"/>
   </g>
   <g id="patch_28">
    <path d="M 312.851674 165.091565 
Q 322.365699 109.108572 331.692405 54.227809 
" clip-path="url(#p732fc7e204)" style="fill: none; stroke: #000000; stroke-linecap: round"/>
    <path d="M 326.408605 61.444557 
L 331.692405 54.227809 
L 334.295523 62.784898 
L 326.408605 61.444557 
z
" clip-path="url(#p732fc7e204)" style="stroke: #000000; stroke-linecap: round"/>
   </g>
   <g id="patch_29">
    <path d="M 304.282682 168.693011 
Q 256.002073 135.180929 208.639927 102.306363 
" clip-path="url(#p732fc7e204)" style="fill: none; stroke: #000000; stroke-linecap: round"/>
    <path d="M 212.931072 110.154043 
L 208.639927 102.306363 
L 217.492758 103.582055 
L 212.931072 110.154043 
z
" clip-path="url(#p732fc7e204)" style="stroke: #000000; stroke-linecap: round"/>
   </g>
   <g id="patch_30">
    <path d="M 303.549854 177.289289 
Q 254.515422 200.125833 206.494498 222.490361 
" clip-path="url(#p732fc7e204)" style="fill: none; stroke: #000000; stroke-linecap: round"/>
    <path d="M 215.435316 222.738929 
L 206.494498 222.490361 
L 212.057843 215.486848 
L 215.435316 222.738929 
z
" clip-path="url(#p732fc7e204)" style="stroke: #000000; stroke-linecap: round"/>
   </g>
   <g id="patch_31">
    <path d="M 202.803909 219.677987 
Q 265.478898 135.605931 327.485656 52.430237 
" clip-path="url(#p732fc7e204)" style="fill: none; stroke: #000000; stroke-linecap: round"/>
    <path d="M 319.497257 56.453355 
L 327.485656 52.430237 
L 325.911111 61.234828 
L 319.497257 56.453355 
z
" clip-path="url(#p732fc7e204)" style="stroke: #000000; stroke-linecap: round"/>
   </g>
   <g id="patch_32">
    <path d="M 189.080347 225.26616 
Q 117.910621 214.003495 47.845186 202.915585 
" clip-path="url(#p732fc7e204)" style="fill: none; stroke: #000000; stroke-linecap: round"/>
    <path d="M 55.121634 208.116865 
L 47.845186 202.915585 
L 56.372079 200.215195 
L 55.121634 208.116865 
z
" clip-path="url(#p732fc7e204)" style="stroke: #000000; stroke-linecap: round"/>
   </g>
   <g id="patch_33">
    <path d="M 197.827865 217.957916 
Q 199.117553 161.674188 200.38163 106.5082 
" clip-path="url(#p732fc7e204)" style="fill: none; stroke: #000000; stroke-linecap: round"/>
    <path d="M 196.199415 114.414468 
L 200.38163 106.5082 
L 204.197316 114.597733 
L 196.199415 114.414468 
z
" clip-path="url(#p732fc7e204)" style="stroke: #000000; stroke-linecap: round"/>
   </g>
   <g id="matplotlib.axis_1">
    <g id="xtick_1"/>
    <g id="xtick_2"/>
    <g id="xtick_3"/>
    <g id="xtick_4"/>
    <g id="xtick_5"/>
   </g>
   <g id="matplotlib.axis_2">
    <g id="ytick_1"/>
    <g id="ytick_2"/>
    <g id="ytick_3"/>
    <g id="ytick_4"/>
    <g id="ytick_5"/>
    <g id="ytick_6"/>
   </g>
   <g id="PathCollection_1">
    <defs>
     <path id="mf90a3e95a3" d="M 0 8.660254 
C 2.296726 8.660254 4.499694 7.747755 6.123724 6.123724 
C 7.747755 4.499694 8.660254 2.296726 8.660254 0 
C 8.660254 -2.296726 7.747755 -4.499694 6.123724 -6.123724 
C 4.499694 -7.747755 2.296726 -8.660254 0 -8.660254 
C -2.296726 -8.660254 -4.499694 -7.747755 -6.123724 -6.123724 
C -7.747755 -4.499694 -8.660254 -2.296726 -8.660254 0 
C -8.660254 2.296726 -7.747755 4.499694 -6.123724 6.123724 
C -4.499694 7.747755 -2.296726 8.660254 0 8.660254 
z
" style="stroke: #adade0"/>
    </defs>
    <g clip-path="url(#p732fc7e204)">
     <use xlink:href="#mf90a3e95a3" x="333.330248" y="44.590319" style="fill: #adade0; stroke: #adade0"/>
     <use xlink:href="#mf90a3e95a3" x="38.189752" y="201.387604" style="fill: #adade0; stroke: #adade0"/>
     <use xlink:href="#mf90a3e95a3" x="126.930149" y="128.987894" style="fill: #adade0; stroke: #adade0"/>
     <use xlink:href="#mf90a3e95a3" x="166.566752" y="30.292364" style="fill: #adade0; stroke: #adade0"/>
     <use xlink:href="#mf90a3e95a3" x="200.605694" y="96.729717" style="fill: #adade0; stroke: #adade0"/>
     <use xlink:href="#mf90a3e95a3" x="123.030125" y="31.173884" style="fill: #adade0; stroke: #adade0"/>
     <use xlink:href="#mf90a3e95a3" x="209.457504" y="154.089048" style="fill: #adade0; stroke: #adade0"/>
     <use xlink:href="#mf90a3e95a3" x="124.702283" y="250.219636" style="fill: #adade0; stroke: #adade0"/>
     <use xlink:href="#mf90a3e95a3" x="311.400057" y="173.633256" style="fill: #adade0; stroke: #adade0"/>
     <use xlink:href="#mf90a3e95a3" x="197.629403" y="226.619055" style="fill: #adade0; stroke: #adade0"/>
    </g>
   </g>
   <g id="patch_34">
    <path d="M 7.2 273.312 
L 7.2 7.2 
" style="fill: none; stroke: #000000; stroke-width: 0.8; stroke-linejoin: miter; stroke-linecap: square"/>
   </g>
   <g id="patch_35">
    <path d="M 364.32 273.312 
L 364.32 7.2 
" style="fill: none; stroke: #000000; stroke-width: 0.8; stroke-linejoin: miter; stroke-linecap: square"/>
   </g>
   <g id="patch_36">
    <path d="M 7.2 273.312 
L 364.32 273.312 
" style="fill: none; stroke: #000000; stroke-width: 0.8; stroke-linejoin: miter; stroke-linecap: square"/>
   </g>
   <g id="patch_37">
    <path d="M 7.2 7.2 
L 364.32 7.2 
" style="fill: none; stroke: #000000; stroke-width: 0.8; stroke-linejoin: miter; stroke-linecap: square"/>
   </g>
   <g id="text_1">
    <g clip-path="url(#p732fc7e204)">
     <!-- 0 -->
     <g transform="translate(329.512748 47.901569) scale(0.12 -0.12)">
      <defs>
       <path id="DejaVuSans-30" d="M 2034 4250 
Q 1547 4250 1301 3770 
Q 1056 3291 1056 2328 
Q 1056 1369 1301 889 
Q 1547 409 2034 409 
Q 2525 409 2770 889 
Q 3016 1369 3016 2328 
Q 3016 3291 2770 3770 
Q 2525 4250 2034 4250 
z
M 2034 4750 
Q 2819 4750 3233 4129 
Q 3647 3509 3647 2328 
Q 3647 1150 3233 529 
Q 2819 -91 2034 -91 
Q 1250 -91 836 529 
Q 422 1150 422 2328 
Q 422 3509 836 4129 
Q 1250 4750 2034 4750 
z
" transform="scale(0.015625)"/>
      </defs>
      <use xlink:href="#DejaVuSans-30"/>
     </g>
    </g>
   </g>
   <g id="text_2">
    <g clip-path="url(#p732fc7e204)">
     <!-- 1 -->
     <g transform="translate(34.372252 204.698854) scale(0.12 -0.12)">
      <defs>
       <path id="DejaVuSans-31" d="M 794 531 
L 1825 531 
L 1825 4091 
L 703 3866 
L 703 4441 
L 1819 4666 
L 2450 4666 
L 2450 531 
L 3481 531 
L 3481 0 
L 794 0 
L 794 531 
z
" transform="scale(0.015625)"/>
      </defs>
      <use xlink:href="#DejaVuSans-31"/>
     </g>
    </g>
   </g>
   <g id="text_3">
    <g clip-path="url(#p732fc7e204)">
     <!-- 2 -->
     <g transform="translate(123.112649 132.299144) scale(0.12 -0.12)">
      <defs>
       <path id="DejaVuSans-32" d="M 1228 531 
L 3431 531 
L 3431 0 
L 469 0 
L 469 531 
Q 828 903 1448 1529 
Q 2069 2156 2228 2338 
Q 2531 2678 2651 2914 
Q 2772 3150 2772 3378 
Q 2772 3750 2511 3984 
Q 2250 4219 1831 4219 
Q 1534 4219 1204 4116 
Q 875 4013 500 3803 
L 500 4441 
Q 881 4594 1212 4672 
Q 1544 4750 1819 4750 
Q 2544 4750 2975 4387 
Q 3406 4025 3406 3419 
Q 3406 3131 3298 2873 
Q 3191 2616 2906 2266 
Q 2828 2175 2409 1742 
Q 1991 1309 1228 531 
z
" transform="scale(0.015625)"/>
      </defs>
      <use xlink:href="#DejaVuSans-32"/>
     </g>
    </g>
   </g>
   <g id="text_4">
    <g clip-path="url(#p732fc7e204)">
     <!-- 3 -->
     <g transform="translate(162.749252 33.603614) scale(0.12 -0.12)">
      <defs>
       <path id="DejaVuSans-33" d="M 2597 2516 
Q 3050 2419 3304 2112 
Q 3559 1806 3559 1356 
Q 3559 666 3084 287 
Q 2609 -91 1734 -91 
Q 1441 -91 1130 -33 
Q 819 25 488 141 
L 488 750 
Q 750 597 1062 519 
Q 1375 441 1716 441 
Q 2309 441 2620 675 
Q 2931 909 2931 1356 
Q 2931 1769 2642 2001 
Q 2353 2234 1838 2234 
L 1294 2234 
L 1294 2753 
L 1863 2753 
Q 2328 2753 2575 2939 
Q 2822 3125 2822 3475 
Q 2822 3834 2567 4026 
Q 2313 4219 1838 4219 
Q 1578 4219 1281 4162 
Q 984 4106 628 3988 
L 628 4550 
Q 988 4650 1302 4700 
Q 1616 4750 1894 4750 
Q 2613 4750 3031 4423 
Q 3450 4097 3450 3541 
Q 3450 3153 3228 2886 
Q 3006 2619 2597 2516 
z
" transform="scale(0.015625)"/>
      </defs>
      <use xlink:href="#DejaVuSans-33"/>
     </g>
    </g>
   </g>
   <g id="text_5">
    <g clip-path="url(#p732fc7e204)">
     <!-- 4 -->
     <g transform="translate(196.788194 100.040967) scale(0.12 -0.12)">
      <defs>
       <path id="DejaVuSans-34" d="M 2419 4116 
L 825 1625 
L 2419 1625 
L 2419 4116 
z
M 2253 4666 
L 3047 4666 
L 3047 1625 
L 3713 1625 
L 3713 1100 
L 3047 1100 
L 3047 0 
L 2419 0 
L 2419 1100 
L 313 1100 
L 313 1709 
L 2253 4666 
z
" transform="scale(0.015625)"/>
      </defs>
      <use xlink:href="#DejaVuSans-34"/>
     </g>
    </g>
   </g>
   <g id="text_6">
    <g clip-path="url(#p732fc7e204)">
     <!-- 5 -->
     <g transform="translate(119.212625 34.485134) scale(0.12 -0.12)">
      <defs>
       <path id="DejaVuSans-35" d="M 691 4666 
L 3169 4666 
L 3169 4134 
L 1269 4134 
L 1269 2991 
Q 1406 3038 1543 3061 
Q 1681 3084 1819 3084 
Q 2600 3084 3056 2656 
Q 3513 2228 3513 1497 
Q 3513 744 3044 326 
Q 2575 -91 1722 -91 
Q 1428 -91 1123 -41 
Q 819 9 494 109 
L 494 744 
Q 775 591 1075 516 
Q 1375 441 1709 441 
Q 2250 441 2565 725 
Q 2881 1009 2881 1497 
Q 2881 1984 2565 2268 
Q 2250 2553 1709 2553 
Q 1456 2553 1204 2497 
Q 953 2441 691 2322 
L 691 4666 
z
" transform="scale(0.015625)"/>
      </defs>
      <use xlink:href="#DejaVuSans-35"/>
     </g>
    </g>
   </g>
   <g id="text_7">
    <g clip-path="url(#p732fc7e204)">
     <!-- 6 -->
     <g transform="translate(205.640004 157.400298) scale(0.12 -0.12)">
      <defs>
       <path id="DejaVuSans-36" d="M 2113 2584 
Q 1688 2584 1439 2293 
Q 1191 2003 1191 1497 
Q 1191 994 1439 701 
Q 1688 409 2113 409 
Q 2538 409 2786 701 
Q 3034 994 3034 1497 
Q 3034 2003 2786 2293 
Q 2538 2584 2113 2584 
z
M 3366 4563 
L 3366 3988 
Q 3128 4100 2886 4159 
Q 2644 4219 2406 4219 
Q 1781 4219 1451 3797 
Q 1122 3375 1075 2522 
Q 1259 2794 1537 2939 
Q 1816 3084 2150 3084 
Q 2853 3084 3261 2657 
Q 3669 2231 3669 1497 
Q 3669 778 3244 343 
Q 2819 -91 2113 -91 
Q 1303 -91 875 529 
Q 447 1150 447 2328 
Q 447 3434 972 4092 
Q 1497 4750 2381 4750 
Q 2619 4750 2861 4703 
Q 3103 4656 3366 4563 
z
" transform="scale(0.015625)"/>
      </defs>
      <use xlink:href="#DejaVuSans-36"/>
     </g>
    </g>
   </g>
   <g id="text_8">
    <g clip-path="url(#p732fc7e204)">
     <!-- 7 -->
     <g transform="translate(120.884783 253.530886) scale(0.12 -0.12)">
      <defs>
       <path id="DejaVuSans-37" d="M 525 4666 
L 3525 4666 
L 3525 4397 
L 1831 0 
L 1172 0 
L 2766 4134 
L 525 4134 
L 525 4666 
z
" transform="scale(0.015625)"/>
      </defs>
      <use xlink:href="#DejaVuSans-37"/>
     </g>
    </g>
   </g>
   <g id="text_9">
    <g clip-path="url(#p732fc7e204)">
     <!-- 8 -->
     <g transform="translate(307.582557 176.944506) scale(0.12 -0.12)">
      <defs>
       <path id="DejaVuSans-38" d="M 2034 2216 
Q 1584 2216 1326 1975 
Q 1069 1734 1069 1313 
Q 1069 891 1326 650 
Q 1584 409 2034 409 
Q 2484 409 2743 651 
Q 3003 894 3003 1313 
Q 3003 1734 2745 1975 
Q 2488 2216 2034 2216 
z
M 1403 2484 
Q 997 2584 770 2862 
Q 544 3141 544 3541 
Q 544 4100 942 4425 
Q 1341 4750 2034 4750 
Q 2731 4750 3128 4425 
Q 3525 4100 3525 3541 
Q 3525 3141 3298 2862 
Q 3072 2584 2669 2484 
Q 3125 2378 3379 2068 
Q 3634 1759 3634 1313 
Q 3634 634 3220 271 
Q 2806 -91 2034 -91 
Q 1263 -91 848 271 
Q 434 634 434 1313 
Q 434 1759 690 2068 
Q 947 2378 1403 2484 
z
M 1172 3481 
Q 1172 3119 1398 2916 
Q 1625 2713 2034 2713 
Q 2441 2713 2670 2916 
Q 2900 3119 2900 3481 
Q 2900 3844 2670 4047 
Q 2441 4250 2034 4250 
Q 1625 4250 1398 4047 
Q 1172 3844 1172 3481 
z
" transform="scale(0.015625)"/>
      </defs>
      <use xlink:href="#DejaVuSans-38"/>
     </g>
    </g>
   </g>
   <g id="text_10">
    <g clip-path="url(#p732fc7e204)">
     <!-- 9 -->
     <g transform="translate(193.811903 229.930305) scale(0.12 -0.12)">
      <defs>
       <path id="DejaVuSans-39" d="M 703 97 
L 703 672 
Q 941 559 1184 500 
Q 1428 441 1663 441 
Q 2288 441 2617 861 
Q 2947 1281 2994 2138 
Q 2813 1869 2534 1725 
Q 2256 1581 1919 1581 
Q 1219 1581 811 2004 
Q 403 2428 403 3163 
Q 403 3881 828 4315 
Q 1253 4750 1959 4750 
Q 2769 4750 3195 4129 
Q 3622 3509 3622 2328 
Q 3622 1225 3098 567 
Q 2575 -91 1691 -91 
Q 1453 -91 1209 -44 
Q 966 3 703 97 
z
M 1959 2075 
Q 2384 2075 2632 2365 
Q 2881 2656 2881 3163 
Q 2881 3666 2632 3958 
Q 2384 4250 1959 4250 
Q 1534 4250 1286 3958 
Q 1038 3666 1038 3163 
Q 1038 2656 1286 2365 
Q 1534 2075 1959 2075 
z
" transform="scale(0.015625)"/>
      </defs>
      <use xlink:href="#DejaVuSans-39"/>
     </g>
    </g>
   </g>
  </g>
 </g>
 <defs>
  <clipPath id="p732fc7e204">
   <rect x="7.2" y="7.2" width="357.12" height="266.112"/>
  </clipPath>
 </defs>
</svg>
