<?xml version="1.0" encoding="utf-8" standalone="no"?>
<!DOCTYPE svg PUBLIC "-//W3C//DTD SVG 1.1//EN"
  "http://www.w3.org/Graphics/SVG/1.1/DTD/svg11.dtd">
<svg xmlns:xlink="http://www.w3.org/1999/xlink" width="684pt" height="362.158125pt" viewBox="0 0 684 362.158125" xmlns="http://www.w3.org/2000/svg" version="1.1">
 <metadata>
  <rdf:RDF xmlns:dc="http://purl.org/dc/elements/1.1/" xmlns:cc="http://creativecommons.org/ns#" xmlns:rdf="http://www.w3.org/1999/02/22-rdf-syntax-ns#">
   <cc:Work>
    <dc:type rdf:resource="http://purl.org/dc/dcmitype/StillImage"/>
    <dc:date>2022-10-15T07:45:59.829353</dc:date>
    <dc:format>image/svg+xml</dc:format>
    <dc:creator>
     <cc:Agent>
      <dc:title>Matplotlib v3.6.1, https://matplotlib.org/</dc:title>
     </cc:Agent>
    </dc:creator>
   </cc:Work>
  </rdf:RDF>
 </metadata>
 <defs>
  <style type="text/css">*{stroke-linejoin: round; stroke-linecap: butt}</style>
 </defs>
 <g id="figure_1">
  <g id="patch_1">
   <path d="M 0 362.158125 
L 684 362.158125 
L 684 0 
L 0 0 
z
" style="fill: #ffffff"/>
  </g>
  <g id="axes_1">
   <g id="patch_2">
    <path d="M 7.2 173.518125 
L 204.141176 173.518125 
L 204.141176 22.318125 
L 7.2 22.318125 
z
" style="fill: #ffffff"/>
   </g>
   <g id="patch_3">
    <path d="M 176.824471 122.427951 
Q 180.811188 137.229665 184.507134 150.951817 
" clip-path="url(#pa3bb67f7b2)" style="fill: none; stroke: #000000; stroke-linecap: round"/>
    <path d="M 186.288904 142.186813 
L 184.507134 150.951817 
L 178.564193 144.267399 
L 186.288904 142.186813 
z
" clip-path="url(#pa3bb67f7b2)" style="stroke: #000000; stroke-linecap: round"/>
   </g>
   <g id="patch_4">
    <path d="M 170.985828 128.80233 
Q 171.755035 125.64172 172.25986 123.567434 
" clip-path="url(#pa3bb67f7b2)" style="fill: none; stroke: #000000; stroke-linecap: round"/>
    <path d="M 166.481541 130.394661 
L 172.25986 123.567434 
L 174.25465 132.286425 
L 166.481541 130.394661 
z
" clip-path="url(#pa3bb67f7b2)" style="stroke: #000000; stroke-linecap: round"/>
   </g>
   <g id="patch_5">
    <path d="M 174.269293 144.037591 
Q 177.9945 148.805559 181.03137 152.692511 
" clip-path="url(#pa3bb67f7b2)" style="fill: none; stroke: #000000; stroke-linecap: round"/>
    <path d="M 179.25805 143.925793 
L 181.03137 152.692511 
L 172.954004 148.851136 
L 179.25805 143.925793 
z
" clip-path="url(#pa3bb67f7b2)" style="stroke: #000000; stroke-linecap: round"/>
   </g>
   <g id="patch_6">
    <path d="M 124.329414 99.270856 
Q 145.297151 105.445284 165.192387 111.30389 
" clip-path="url(#pa3bb67f7b2)" style="fill: none; stroke: #000000; stroke-linecap: round"/>
    <path d="M 158.648121 105.206958 
L 165.192387 111.30389 
L 156.388282 112.881144 
L 158.648121 105.206958 
z
" clip-path="url(#pa3bb67f7b2)" style="stroke: #000000; stroke-linecap: round"/>
   </g>
   <g id="patch_7">
    <path d="M 122.473729 102.599807 
Q 151.535382 128.61034 179.763945 153.875246 
" clip-path="url(#pa3bb67f7b2)" style="fill: none; stroke: #000000; stroke-linecap: round"/>
    <path d="M 176.470465 145.559419 
L 179.763945 153.875246 
L 171.135195 151.520534 
L 176.470465 145.559419 
z
" clip-path="url(#pa3bb67f7b2)" style="stroke: #000000; stroke-linecap: round"/>
   </g>
   <g id="patch_8">
    <path d="M 108.823284 92.00778 
Q 70.154076 66.130676 32.414044 40.87537 
" clip-path="url(#pa3bb67f7b2)" style="fill: none; stroke: #000000; stroke-linecap: round"/>
    <path d="M 36.838081 48.648908 
L 32.414044 40.87537 
L 41.287297 42.000263 
L 36.838081 48.648908 
z
" clip-path="url(#pa3bb67f7b2)" style="stroke: #000000; stroke-linecap: round"/>
   </g>
   <g id="matplotlib.axis_1">
    <g id="xtick_1"/>
    <g id="xtick_2"/>
    <g id="xtick_3"/>
    <g id="xtick_4"/>
   </g>
   <g id="matplotlib.axis_2">
    <g id="ytick_1"/>
    <g id="ytick_2"/>
    <g id="ytick_3"/>
    <g id="ytick_4"/>
   </g>
   <g id="PathCollection_1">
    <defs>
     <path id="mb1c58140a6" d="M 0 8.660254 
C 2.296726 8.660254 4.499694 7.747755 6.123724 6.123724 
C 7.747755 4.499694 8.660254 2.296726 8.660254 0 
C 8.660254 -2.296726 7.747755 -4.499694 6.123724 -6.123724 
C 4.499694 -7.747755 2.296726 -8.660254 0 -8.660254 
C -2.296726 -8.660254 -4.499694 -7.747755 -6.123724 -6.123724 
C -7.747755 -4.499694 -8.660254 -2.296726 -8.660254 0 
C -8.660254 2.296726 -7.747755 4.499694 -6.123724 6.123724 
C -4.499694 7.747755 -2.296726 8.660254 0 8.660254 
z
" style="stroke: #adade0"/>
    </defs>
    <g clip-path="url(#pa3bb67f7b2)">
     <use xlink:href="#mb1c58140a6" x="174.572251" y="114.066005" style="fill: #adade0; stroke: #adade0"/>
     <use xlink:href="#mb1c58140a6" x="187.05124" y="160.397464" style="fill: #adade0; stroke: #adade0"/>
     <use xlink:href="#mb1c58140a6" x="168.938507" y="137.21461" style="fill: #adade0; stroke: #adade0"/>
     <use xlink:href="#mb1c58140a6" x="24.289937" y="35.438786" style="fill: #adade0; stroke: #adade0"/>
     <use xlink:href="#mb1c58140a6" x="116.02053" y="96.824116" style="fill: #adade0; stroke: #adade0"/>
    </g>
   </g>
   <g id="patch_9">
    <path d="M 7.2 173.518125 
L 7.2 22.318125 
" style="fill: none; stroke: #000000; stroke-width: 0.8; stroke-linejoin: miter; stroke-linecap: square"/>
   </g>
   <g id="patch_10">
    <path d="M 204.141176 173.518125 
L 204.141176 22.318125 
" style="fill: none; stroke: #000000; stroke-width: 0.8; stroke-linejoin: miter; stroke-linecap: square"/>
   </g>
   <g id="patch_11">
    <path d="M 7.2 173.518125 
L 204.141176 173.518125 
" style="fill: none; stroke: #000000; stroke-width: 0.8; stroke-linejoin: miter; stroke-linecap: square"/>
   </g>
   <g id="patch_12">
    <path d="M 7.2 22.318125 
L 204.141176 22.318125 
" style="fill: none; stroke: #000000; stroke-width: 0.8; stroke-linejoin: miter; stroke-linecap: square"/>
   </g>
   <g id="text_1">
    <g clip-path="url(#pa3bb67f7b2)">
     <!-- 0 -->
     <g transform="translate(170.754751 117.377255) scale(0.12 -0.12)">
      <defs>
       <path id="DejaVuSans-30" d="M 2034 4250 
Q 1547 4250 1301 3770 
Q 1056 3291 1056 2328 
Q 1056 1369 1301 889 
Q 1547 409 2034 409 
Q 2525 409 2770 889 
Q 3016 1369 3016 2328 
Q 3016 3291 2770 3770 
Q 2525 4250 2034 4250 
z
M 2034 4750 
Q 2819 4750 3233 4129 
Q 3647 3509 3647 2328 
Q 3647 1150 3233 529 
Q 2819 -91 2034 -91 
Q 1250 -91 836 529 
Q 422 1150 422 2328 
Q 422 3509 836 4129 
Q 1250 4750 2034 4750 
z
" transform="scale(0.015625)"/>
      </defs>
      <use xlink:href="#DejaVuSans-30"/>
     </g>
    </g>
   </g>
   <g id="text_2">
    <g clip-path="url(#pa3bb67f7b2)">
     <!-- 1 -->
     <g transform="translate(183.23374 163.708714) scale(0.12 -0.12)">
      <defs>
       <path id="DejaVuSans-31" d="M 794 531 
L 1825 531 
L 1825 4091 
L 703 3866 
L 703 4441 
L 1819 4666 
L 2450 4666 
L 2450 531 
L 3481 531 
L 3481 0 
L 794 0 
L 794 531 
z
" transform="scale(0.015625)"/>
      </defs>
      <use xlink:href="#DejaVuSans-31"/>
     </g>
    </g>
   </g>
   <g id="text_3">
    <g clip-path="url(#pa3bb67f7b2)">
     <!-- 2 -->
     <g transform="translate(165.121007 140.52586) scale(0.12 -0.12)">
      <defs>
       <path id="DejaVuSans-32" d="M 1228 531 
L 3431 531 
L 3431 0 
L 469 0 
L 469 531 
Q 828 903 1448 1529 
Q 2069 2156 2228 2338 
Q 2531 2678 2651 2914 
Q 2772 3150 2772 3378 
Q 2772 3750 2511 3984 
Q 2250 4219 1831 4219 
Q 1534 4219 1204 4116 
Q 875 4013 500 3803 
L 500 4441 
Q 881 4594 1212 4672 
Q 1544 4750 1819 4750 
Q 2544 4750 2975 4387 
Q 3406 4025 3406 3419 
Q 3406 3131 3298 2873 
Q 3191 2616 2906 2266 
Q 2828 2175 2409 1742 
Q 1991 1309 1228 531 
z
" transform="scale(0.015625)"/>
      </defs>
      <use xlink:href="#DejaVuSans-32"/>
     </g>
    </g>
   </g>
   <g id="text_4">
    <g clip-path="url(#pa3bb67f7b2)">
     <!-- 3 -->
     <g transform="translate(20.472437 38.750036) scale(0.12 -0.12)">
      <defs>
       <path id="DejaVuSans-33" d="M 2597 2516 
Q 3050 2419 3304 2112 
Q 3559 1806 3559 1356 
Q 3559 666 3084 287 
Q 2609 -91 1734 -91 
Q 1441 -91 1130 -33 
Q 819 25 488 141 
L 488 750 
Q 750 597 1062 519 
Q 1375 441 1716 441 
Q 2309 441 2620 675 
Q 2931 909 2931 1356 
Q 2931 1769 2642 2001 
Q 2353 2234 1838 2234 
L 1294 2234 
L 1294 2753 
L 1863 2753 
Q 2328 2753 2575 2939 
Q 2822 3125 2822 3475 
Q 2822 3834 2567 4026 
Q 2313 4219 1838 4219 
Q 1578 4219 1281 4162 
Q 984 4106 628 3988 
L 628 4550 
Q 988 4650 1302 4700 
Q 1616 4750 1894 4750 
Q 2613 4750 3031 4423 
Q 3450 4097 3450 3541 
Q 3450 3153 3228 2886 
Q 3006 2619 2597 2516 
z
" transform="scale(0.015625)"/>
      </defs>
      <use xlink:href="#DejaVuSans-33"/>
     </g>
    </g>
   </g>
   <g id="text_5">
    <g clip-path="url(#pa3bb67f7b2)">
     <!-- 4 -->
     <g transform="translate(112.20303 100.135366) scale(0.12 -0.12)">
      <defs>
       <path id="DejaVuSans-34" d="M 2419 4116 
L 825 1625 
L 2419 1625 
L 2419 4116 
z
M 2253 4666 
L 3047 4666 
L 3047 1625 
L 3713 1625 
L 3713 1100 
L 3047 1100 
L 3047 0 
L 2419 0 
L 2419 1100 
L 313 1100 
L 313 1709 
L 2253 4666 
z
" transform="scale(0.015625)"/>
      </defs>
      <use xlink:href="#DejaVuSans-34"/>
     </g>
    </g>
   </g>
   <g id="text_6">
    <!-- Small Random -->
    <g transform="translate(62.261526 16.318125) scale(0.12 -0.12)">
     <defs>
      <path id="DejaVuSans-53" d="M 3425 4513 
L 3425 3897 
Q 3066 4069 2747 4153 
Q 2428 4238 2131 4238 
Q 1616 4238 1336 4038 
Q 1056 3838 1056 3469 
Q 1056 3159 1242 3001 
Q 1428 2844 1947 2747 
L 2328 2669 
Q 3034 2534 3370 2195 
Q 3706 1856 3706 1288 
Q 3706 609 3251 259 
Q 2797 -91 1919 -91 
Q 1588 -91 1214 -16 
Q 841 59 441 206 
L 441 856 
Q 825 641 1194 531 
Q 1563 422 1919 422 
Q 2459 422 2753 634 
Q 3047 847 3047 1241 
Q 3047 1584 2836 1778 
Q 2625 1972 2144 2069 
L 1759 2144 
Q 1053 2284 737 2584 
Q 422 2884 422 3419 
Q 422 4038 858 4394 
Q 1294 4750 2059 4750 
Q 2388 4750 2728 4690 
Q 3069 4631 3425 4513 
z
" transform="scale(0.015625)"/>
      <path id="DejaVuSans-6d" d="M 3328 2828 
Q 3544 3216 3844 3400 
Q 4144 3584 4550 3584 
Q 5097 3584 5394 3201 
Q 5691 2819 5691 2113 
L 5691 0 
L 5113 0 
L 5113 2094 
Q 5113 2597 4934 2840 
Q 4756 3084 4391 3084 
Q 3944 3084 3684 2787 
Q 3425 2491 3425 1978 
L 3425 0 
L 2847 0 
L 2847 2094 
Q 2847 2600 2669 2842 
Q 2491 3084 2119 3084 
Q 1678 3084 1418 2786 
Q 1159 2488 1159 1978 
L 1159 0 
L 581 0 
L 581 3500 
L 1159 3500 
L 1159 2956 
Q 1356 3278 1631 3431 
Q 1906 3584 2284 3584 
Q 2666 3584 2933 3390 
Q 3200 3197 3328 2828 
z
" transform="scale(0.015625)"/>
      <path id="DejaVuSans-61" d="M 2194 1759 
Q 1497 1759 1228 1600 
Q 959 1441 959 1056 
Q 959 750 1161 570 
Q 1363 391 1709 391 
Q 2188 391 2477 730 
Q 2766 1069 2766 1631 
L 2766 1759 
L 2194 1759 
z
M 3341 1997 
L 3341 0 
L 2766 0 
L 2766 531 
Q 2569 213 2275 61 
Q 1981 -91 1556 -91 
Q 1019 -91 701 211 
Q 384 513 384 1019 
Q 384 1609 779 1909 
Q 1175 2209 1959 2209 
L 2766 2209 
L 2766 2266 
Q 2766 2663 2505 2880 
Q 2244 3097 1772 3097 
Q 1472 3097 1187 3025 
Q 903 2953 641 2809 
L 641 3341 
Q 956 3463 1253 3523 
Q 1550 3584 1831 3584 
Q 2591 3584 2966 3190 
Q 3341 2797 3341 1997 
z
" transform="scale(0.015625)"/>
      <path id="DejaVuSans-6c" d="M 603 4863 
L 1178 4863 
L 1178 0 
L 603 0 
L 603 4863 
z
" transform="scale(0.015625)"/>
      <path id="DejaVuSans-20" transform="scale(0.015625)"/>
      <path id="DejaVuSans-52" d="M 2841 2188 
Q 3044 2119 3236 1894 
Q 3428 1669 3622 1275 
L 4263 0 
L 3584 0 
L 2988 1197 
Q 2756 1666 2539 1819 
Q 2322 1972 1947 1972 
L 1259 1972 
L 1259 0 
L 628 0 
L 628 4666 
L 2053 4666 
Q 2853 4666 3247 4331 
Q 3641 3997 3641 3322 
Q 3641 2881 3436 2590 
Q 3231 2300 2841 2188 
z
M 1259 4147 
L 1259 2491 
L 2053 2491 
Q 2509 2491 2742 2702 
Q 2975 2913 2975 3322 
Q 2975 3731 2742 3939 
Q 2509 4147 2053 4147 
L 1259 4147 
z
" transform="scale(0.015625)"/>
      <path id="DejaVuSans-6e" d="M 3513 2113 
L 3513 0 
L 2938 0 
L 2938 2094 
Q 2938 2591 2744 2837 
Q 2550 3084 2163 3084 
Q 1697 3084 1428 2787 
Q 1159 2491 1159 1978 
L 1159 0 
L 581 0 
L 581 3500 
L 1159 3500 
L 1159 2956 
Q 1366 3272 1645 3428 
Q 1925 3584 2291 3584 
Q 2894 3584 3203 3211 
Q 3513 2838 3513 2113 
z
" transform="scale(0.015625)"/>
      <path id="DejaVuSans-64" d="M 2906 2969 
L 2906 4863 
L 3481 4863 
L 3481 0 
L 2906 0 
L 2906 525 
Q 2725 213 2448 61 
Q 2172 -91 1784 -91 
Q 1150 -91 751 415 
Q 353 922 353 1747 
Q 353 2572 751 3078 
Q 1150 3584 1784 3584 
Q 2172 3584 2448 3432 
Q 2725 3281 2906 2969 
z
M 947 1747 
Q 947 1113 1208 752 
Q 1469 391 1925 391 
Q 2381 391 2643 752 
Q 2906 1113 2906 1747 
Q 2906 2381 2643 2742 
Q 2381 3103 1925 3103 
Q 1469 3103 1208 2742 
Q 947 2381 947 1747 
z
" transform="scale(0.015625)"/>
      <path id="DejaVuSans-6f" d="M 1959 3097 
Q 1497 3097 1228 2736 
Q 959 2375 959 1747 
Q 959 1119 1226 758 
Q 1494 397 1959 397 
Q 2419 397 2687 759 
Q 2956 1122 2956 1747 
Q 2956 2369 2687 2733 
Q 2419 3097 1959 3097 
z
M 1959 3584 
Q 2709 3584 3137 3096 
Q 3566 2609 3566 1747 
Q 3566 888 3137 398 
Q 2709 -91 1959 -91 
Q 1206 -91 779 398 
Q 353 888 353 1747 
Q 353 2609 779 3096 
Q 1206 3584 1959 3584 
z
" transform="scale(0.015625)"/>
     </defs>
     <use xlink:href="#DejaVuSans-53"/>
     <use xlink:href="#DejaVuSans-6d" x="63.476562"/>
     <use xlink:href="#DejaVuSans-61" x="160.888672"/>
     <use xlink:href="#DejaVuSans-6c" x="222.167969"/>
     <use xlink:href="#DejaVuSans-6c" x="249.951172"/>
     <use xlink:href="#DejaVuSans-20" x="277.734375"/>
     <use xlink:href="#DejaVuSans-52" x="309.521484"/>
     <use xlink:href="#DejaVuSans-61" x="376.753906"/>
     <use xlink:href="#DejaVuSans-6e" x="438.033203"/>
     <use xlink:href="#DejaVuSans-64" x="501.412109"/>
     <use xlink:href="#DejaVuSans-6f" x="564.888672"/>
     <use xlink:href="#DejaVuSans-6d" x="626.070312"/>
    </g>
   </g>
  </g>
  <g id="axes_2">
   <g id="patch_13">
    <path d="M 243.529412 173.518125 
L 440.470588 173.518125 
L 440.470588 22.318125 
L 243.529412 22.318125 
z
" style="fill: #ffffff"/>
   </g>
   <g id="patch_14">
    <path d="M 415.878992 44.144467 
Q 412.087921 41.956357 409.26517 40.327137 
" clip-path="url(#pfad59072d4)" style="fill: none; stroke: #000000; stroke-linecap: round"/>
    <path d="M 414.194356 47.790589 
L 409.26517 40.327137 
L 418.193443 40.861859 
L 414.194356 47.790589 
z
" clip-path="url(#pfad59072d4)" style="stroke: #000000; stroke-linecap: round"/>
   </g>
   <g id="patch_15">
    <path d="M 366.776854 39.774905 
Q 379.490326 38.154418 391.094737 36.675295 
" clip-path="url(#pfad59072d4)" style="fill: none; stroke: #000000; stroke-linecap: round"/>
    <path d="M 382.653186 33.718911 
L 391.094737 36.675295 
L 383.664699 41.654706 
L 382.653186 33.718911 
z
" clip-path="url(#pfad59072d4)" style="stroke: #000000; stroke-linecap: round"/>
   </g>
   <g id="patch_16">
    <path d="M 282.910494 148.176822 
Q 275.562198 152.205368 269.194274 155.696445 
" clip-path="url(#pfad59072d4)" style="fill: none; stroke: #000000; stroke-linecap: round"/>
    <path d="M 278.132145 155.358124 
L 269.194274 155.696445 
L 274.28634 148.343155 
L 278.132145 155.358124 
z
" clip-path="url(#pfad59072d4)" style="stroke: #000000; stroke-linecap: round"/>
   </g>
   <g id="matplotlib.axis_3">
    <g id="xtick_5"/>
    <g id="xtick_6"/>
    <g id="xtick_7"/>
    <g id="xtick_8"/>
    <g id="xtick_9"/>
   </g>
   <g id="matplotlib.axis_4">
    <g id="ytick_5"/>
    <g id="ytick_6"/>
    <g id="ytick_7"/>
    <g id="ytick_8"/>
   </g>
   <g id="PathCollection_2">
    <g clip-path="url(#pfad59072d4)">
     <use xlink:href="#mb1c58140a6" x="400.795722" y="35.438786" style="fill: #adade0; stroke: #adade0"/>
     <use xlink:href="#mb1c58140a6" x="423.380651" y="48.474235" style="fill: #adade0; stroke: #adade0"/>
     <use xlink:href="#mb1c58140a6" x="260.619349" y="160.397464" style="fill: #adade0; stroke: #adade0"/>
     <use xlink:href="#mb1c58140a6" x="358.186967" y="40.86979" style="fill: #adade0; stroke: #adade0"/>
     <use xlink:href="#mb1c58140a6" x="290.501375" y="144.015285" style="fill: #adade0; stroke: #adade0"/>
    </g>
   </g>
   <g id="patch_17">
    <path d="M 243.529412 173.518125 
L 243.529412 22.318125 
" style="fill: none; stroke: #000000; stroke-width: 0.8; stroke-linejoin: miter; stroke-linecap: square"/>
   </g>
   <g id="patch_18">
    <path d="M 440.470588 173.518125 
L 440.470588 22.318125 
" style="fill: none; stroke: #000000; stroke-width: 0.8; stroke-linejoin: miter; stroke-linecap: square"/>
   </g>
   <g id="patch_19">
    <path d="M 243.529412 173.518125 
L 440.470588 173.518125 
" style="fill: none; stroke: #000000; stroke-width: 0.8; stroke-linejoin: miter; stroke-linecap: square"/>
   </g>
   <g id="patch_20">
    <path d="M 243.529412 22.318125 
L 440.470588 22.318125 
" style="fill: none; stroke: #000000; stroke-width: 0.8; stroke-linejoin: miter; stroke-linecap: square"/>
   </g>
   <g id="text_7">
    <g clip-path="url(#pfad59072d4)">
     <!-- 0 -->
     <g transform="translate(396.978222 38.750036) scale(0.12 -0.12)">
      <use xlink:href="#DejaVuSans-30"/>
     </g>
    </g>
   </g>
   <g id="text_8">
    <g clip-path="url(#pfad59072d4)">
     <!-- 1 -->
     <g transform="translate(419.563151 51.785485) scale(0.12 -0.12)">
      <use xlink:href="#DejaVuSans-31"/>
     </g>
    </g>
   </g>
   <g id="text_9">
    <g clip-path="url(#pfad59072d4)">
     <!-- 2 -->
     <g transform="translate(256.801849 163.708714) scale(0.12 -0.12)">
      <use xlink:href="#DejaVuSans-32"/>
     </g>
    </g>
   </g>
   <g id="text_10">
    <g clip-path="url(#pfad59072d4)">
     <!-- 3 -->
     <g transform="translate(354.369467 44.18104) scale(0.12 -0.12)">
      <use xlink:href="#DejaVuSans-33"/>
     </g>
    </g>
   </g>
   <g id="text_11">
    <g clip-path="url(#pfad59072d4)">
     <!-- 4 -->
     <g transform="translate(286.683875 147.326535) scale(0.12 -0.12)">
      <use xlink:href="#DejaVuSans-34"/>
     </g>
    </g>
   </g>
   <g id="text_12">
    <!-- Small Source Sink Random -->
    <g transform="translate(261.419062 16.318125) scale(0.12 -0.12)">
     <defs>
      <path id="DejaVuSans-75" d="M 544 1381 
L 544 3500 
L 1119 3500 
L 1119 1403 
Q 1119 906 1312 657 
Q 1506 409 1894 409 
Q 2359 409 2629 706 
Q 2900 1003 2900 1516 
L 2900 3500 
L 3475 3500 
L 3475 0 
L 2900 0 
L 2900 538 
Q 2691 219 2414 64 
Q 2138 -91 1772 -91 
Q 1169 -91 856 284 
Q 544 659 544 1381 
z
M 1991 3584 
L 1991 3584 
z
" transform="scale(0.015625)"/>
      <path id="DejaVuSans-72" d="M 2631 2963 
Q 2534 3019 2420 3045 
Q 2306 3072 2169 3072 
Q 1681 3072 1420 2755 
Q 1159 2438 1159 1844 
L 1159 0 
L 581 0 
L 581 3500 
L 1159 3500 
L 1159 2956 
Q 1341 3275 1631 3429 
Q 1922 3584 2338 3584 
Q 2397 3584 2469 3576 
Q 2541 3569 2628 3553 
L 2631 2963 
z
" transform="scale(0.015625)"/>
      <path id="DejaVuSans-63" d="M 3122 3366 
L 3122 2828 
Q 2878 2963 2633 3030 
Q 2388 3097 2138 3097 
Q 1578 3097 1268 2742 
Q 959 2388 959 1747 
Q 959 1106 1268 751 
Q 1578 397 2138 397 
Q 2388 397 2633 464 
Q 2878 531 3122 666 
L 3122 134 
Q 2881 22 2623 -34 
Q 2366 -91 2075 -91 
Q 1284 -91 818 406 
Q 353 903 353 1747 
Q 353 2603 823 3093 
Q 1294 3584 2113 3584 
Q 2378 3584 2631 3529 
Q 2884 3475 3122 3366 
z
" transform="scale(0.015625)"/>
      <path id="DejaVuSans-65" d="M 3597 1894 
L 3597 1613 
L 953 1613 
Q 991 1019 1311 708 
Q 1631 397 2203 397 
Q 2534 397 2845 478 
Q 3156 559 3463 722 
L 3463 178 
Q 3153 47 2828 -22 
Q 2503 -91 2169 -91 
Q 1331 -91 842 396 
Q 353 884 353 1716 
Q 353 2575 817 3079 
Q 1281 3584 2069 3584 
Q 2775 3584 3186 3129 
Q 3597 2675 3597 1894 
z
M 3022 2063 
Q 3016 2534 2758 2815 
Q 2500 3097 2075 3097 
Q 1594 3097 1305 2825 
Q 1016 2553 972 2059 
L 3022 2063 
z
" transform="scale(0.015625)"/>
      <path id="DejaVuSans-69" d="M 603 3500 
L 1178 3500 
L 1178 0 
L 603 0 
L 603 3500 
z
M 603 4863 
L 1178 4863 
L 1178 4134 
L 603 4134 
L 603 4863 
z
" transform="scale(0.015625)"/>
      <path id="DejaVuSans-6b" d="M 581 4863 
L 1159 4863 
L 1159 1991 
L 2875 3500 
L 3609 3500 
L 1753 1863 
L 3688 0 
L 2938 0 
L 1159 1709 
L 1159 0 
L 581 0 
L 581 4863 
z
" transform="scale(0.015625)"/>
     </defs>
     <use xlink:href="#DejaVuSans-53"/>
     <use xlink:href="#DejaVuSans-6d" x="63.476562"/>
     <use xlink:href="#DejaVuSans-61" x="160.888672"/>
     <use xlink:href="#DejaVuSans-6c" x="222.167969"/>
     <use xlink:href="#DejaVuSans-6c" x="249.951172"/>
     <use xlink:href="#DejaVuSans-20" x="277.734375"/>
     <use xlink:href="#DejaVuSans-53" x="309.521484"/>
     <use xlink:href="#DejaVuSans-6f" x="372.998047"/>
     <use xlink:href="#DejaVuSans-75" x="434.179688"/>
     <use xlink:href="#DejaVuSans-72" x="497.558594"/>
     <use xlink:href="#DejaVuSans-63" x="536.421875"/>
     <use xlink:href="#DejaVuSans-65" x="591.402344"/>
     <use xlink:href="#DejaVuSans-20" x="652.925781"/>
     <use xlink:href="#DejaVuSans-53" x="684.712891"/>
     <use xlink:href="#DejaVuSans-69" x="748.189453"/>
     <use xlink:href="#DejaVuSans-6e" x="775.972656"/>
     <use xlink:href="#DejaVuSans-6b" x="839.351562"/>
     <use xlink:href="#DejaVuSans-20" x="897.261719"/>
     <use xlink:href="#DejaVuSans-52" x="929.048828"/>
     <use xlink:href="#DejaVuSans-61" x="996.28125"/>
     <use xlink:href="#DejaVuSans-6e" x="1057.560547"/>
     <use xlink:href="#DejaVuSans-64" x="1120.939453"/>
     <use xlink:href="#DejaVuSans-6f" x="1184.416016"/>
     <use xlink:href="#DejaVuSans-6d" x="1245.597656"/>
    </g>
   </g>
  </g>
  <g id="axes_3">
   <g id="patch_21">
    <path d="M 479.858824 173.518125 
L 676.8 173.518125 
L 676.8 22.318125 
L 479.858824 22.318125 
z
" style="fill: #ffffff"/>
   </g>
   <g id="patch_22">
    <path d="M 498.831903 151.947071 
Q 508.35463 109.214889 517.634173 67.573973 
" clip-path="url(#pf0a6151f8d)" style="fill: none; stroke: #000000; stroke-linecap: round"/>
    <path d="M 511.989851 74.51239 
L 517.634173 67.573973 
L 519.798314 76.25248 
L 511.989851 74.51239 
z
" clip-path="url(#pf0a6151f8d)" style="stroke: #000000; stroke-linecap: round"/>
   </g>
   <g id="patch_23">
    <path d="M 527.435429 54.01385 
Q 541.344379 46.734158 554.262766 39.972908 
" clip-path="url(#pf0a6151f8d)" style="fill: none; stroke: #000000; stroke-linecap: round"/>
    <path d="M 545.320029 40.138636 
L 554.262766 39.972908 
L 549.029707 47.226534 
L 545.320029 40.138636 
z
" clip-path="url(#pf0a6151f8d)" style="stroke: #000000; stroke-linecap: round"/>
   </g>
   <g id="patch_24">
    <path d="M 570.068349 40.336807 
Q 587.963759 52.608782 604.937115 64.248447 
" clip-path="url(#pf0a6151f8d)" style="fill: none; stroke: #000000; stroke-linecap: round"/>
    <path d="M 600.601646 56.425167 
L 604.937115 64.248447 
L 596.077209 63.022854 
L 600.601646 56.425167 
z
" clip-path="url(#pf0a6151f8d)" style="stroke: #000000; stroke-linecap: round"/>
   </g>
   <g id="patch_25">
    <path d="M 619.451296 75.548895 
Q 636.353147 90.668781 652.421724 105.043245 
" clip-path="url(#pf0a6151f8d)" style="fill: none; stroke: #000000; stroke-linecap: round"/>
    <path d="M 649.126202 96.728226 
L 652.421724 105.043245 
L 643.792396 102.690652 
L 649.126202 96.728226 
z
" clip-path="url(#pf0a6151f8d)" style="stroke: #000000; stroke-linecap: round"/>
   </g>
   <g id="matplotlib.axis_5">
    <g id="xtick_10"/>
    <g id="xtick_11"/>
    <g id="xtick_12"/>
    <g id="xtick_13"/>
    <g id="xtick_14"/>
   </g>
   <g id="matplotlib.axis_6">
    <g id="ytick_9"/>
    <g id="ytick_10"/>
    <g id="ytick_11"/>
    <g id="ytick_12"/>
    <g id="ytick_13"/>
   </g>
   <g id="PathCollection_3">
    <g clip-path="url(#pf0a6151f8d)">
     <use xlink:href="#mb1c58140a6" x="496.94876" y="160.397464" style="fill: #adade0; stroke: #adade0"/>
     <use xlink:href="#mb1c58140a6" x="519.76089" y="58.030565" style="fill: #adade0; stroke: #adade0"/>
     <use xlink:href="#mb1c58140a6" x="562.925888" y="35.438786" style="fill: #adade0; stroke: #adade0"/>
     <use xlink:href="#mb1c58140a6" x="612.999515" y="69.777327" style="fill: #adade0; stroke: #adade0"/>
     <use xlink:href="#mb1c58140a6" x="659.710063" y="111.563173" style="fill: #adade0; stroke: #adade0"/>
    </g>
   </g>
   <g id="patch_26">
    <path d="M 479.858824 173.518125 
L 479.858824 22.318125 
" style="fill: none; stroke: #000000; stroke-width: 0.8; stroke-linejoin: miter; stroke-linecap: square"/>
   </g>
   <g id="patch_27">
    <path d="M 676.8 173.518125 
L 676.8 22.318125 
" style="fill: none; stroke: #000000; stroke-width: 0.8; stroke-linejoin: miter; stroke-linecap: square"/>
   </g>
   <g id="patch_28">
    <path d="M 479.858824 173.518125 
L 676.8 173.518125 
" style="fill: none; stroke: #000000; stroke-width: 0.8; stroke-linejoin: miter; stroke-linecap: square"/>
   </g>
   <g id="patch_29">
    <path d="M 479.858824 22.318125 
L 676.8 22.318125 
" style="fill: none; stroke: #000000; stroke-width: 0.8; stroke-linejoin: miter; stroke-linecap: square"/>
   </g>
   <g id="text_13">
    <g clip-path="url(#pf0a6151f8d)">
     <!-- 0 -->
     <g transform="translate(493.13126 163.708714) scale(0.12 -0.12)">
      <use xlink:href="#DejaVuSans-30"/>
     </g>
    </g>
   </g>
   <g id="text_14">
    <g clip-path="url(#pf0a6151f8d)">
     <!-- 1 -->
     <g transform="translate(515.94339 61.341815) scale(0.12 -0.12)">
      <use xlink:href="#DejaVuSans-31"/>
     </g>
    </g>
   </g>
   <g id="text_15">
    <g clip-path="url(#pf0a6151f8d)">
     <!-- 2 -->
     <g transform="translate(559.108388 38.750036) scale(0.12 -0.12)">
      <use xlink:href="#DejaVuSans-32"/>
     </g>
    </g>
   </g>
   <g id="text_16">
    <g clip-path="url(#pf0a6151f8d)">
     <!-- 3 -->
     <g transform="translate(609.182015 73.088577) scale(0.12 -0.12)">
      <use xlink:href="#DejaVuSans-33"/>
     </g>
    </g>
   </g>
   <g id="text_17">
    <g clip-path="url(#pf0a6151f8d)">
     <!-- 4 -->
     <g transform="translate(655.892563 114.874423) scale(0.12 -0.12)">
      <use xlink:href="#DejaVuSans-34"/>
     </g>
    </g>
   </g>
   <g id="text_18">
    <!-- Chain Graph -->
    <g transform="translate(540.880037 16.318125) scale(0.12 -0.12)">
     <defs>
      <path id="DejaVuSans-43" d="M 4122 4306 
L 4122 3641 
Q 3803 3938 3442 4084 
Q 3081 4231 2675 4231 
Q 1875 4231 1450 3742 
Q 1025 3253 1025 2328 
Q 1025 1406 1450 917 
Q 1875 428 2675 428 
Q 3081 428 3442 575 
Q 3803 722 4122 1019 
L 4122 359 
Q 3791 134 3420 21 
Q 3050 -91 2638 -91 
Q 1578 -91 968 557 
Q 359 1206 359 2328 
Q 359 3453 968 4101 
Q 1578 4750 2638 4750 
Q 3056 4750 3426 4639 
Q 3797 4528 4122 4306 
z
" transform="scale(0.015625)"/>
      <path id="DejaVuSans-68" d="M 3513 2113 
L 3513 0 
L 2938 0 
L 2938 2094 
Q 2938 2591 2744 2837 
Q 2550 3084 2163 3084 
Q 1697 3084 1428 2787 
Q 1159 2491 1159 1978 
L 1159 0 
L 581 0 
L 581 4863 
L 1159 4863 
L 1159 2956 
Q 1366 3272 1645 3428 
Q 1925 3584 2291 3584 
Q 2894 3584 3203 3211 
Q 3513 2838 3513 2113 
z
" transform="scale(0.015625)"/>
      <path id="DejaVuSans-47" d="M 3809 666 
L 3809 1919 
L 2778 1919 
L 2778 2438 
L 4434 2438 
L 4434 434 
Q 4069 175 3628 42 
Q 3188 -91 2688 -91 
Q 1594 -91 976 548 
Q 359 1188 359 2328 
Q 359 3472 976 4111 
Q 1594 4750 2688 4750 
Q 3144 4750 3555 4637 
Q 3966 4525 4313 4306 
L 4313 3634 
Q 3963 3931 3569 4081 
Q 3175 4231 2741 4231 
Q 1884 4231 1454 3753 
Q 1025 3275 1025 2328 
Q 1025 1384 1454 906 
Q 1884 428 2741 428 
Q 3075 428 3337 486 
Q 3600 544 3809 666 
z
" transform="scale(0.015625)"/>
      <path id="DejaVuSans-70" d="M 1159 525 
L 1159 -1331 
L 581 -1331 
L 581 3500 
L 1159 3500 
L 1159 2969 
Q 1341 3281 1617 3432 
Q 1894 3584 2278 3584 
Q 2916 3584 3314 3078 
Q 3713 2572 3713 1747 
Q 3713 922 3314 415 
Q 2916 -91 2278 -91 
Q 1894 -91 1617 61 
Q 1341 213 1159 525 
z
M 3116 1747 
Q 3116 2381 2855 2742 
Q 2594 3103 2138 3103 
Q 1681 3103 1420 2742 
Q 1159 2381 1159 1747 
Q 1159 1113 1420 752 
Q 1681 391 2138 391 
Q 2594 391 2855 752 
Q 3116 1113 3116 1747 
z
" transform="scale(0.015625)"/>
     </defs>
     <use xlink:href="#DejaVuSans-43"/>
     <use xlink:href="#DejaVuSans-68" x="69.824219"/>
     <use xlink:href="#DejaVuSans-61" x="133.203125"/>
     <use xlink:href="#DejaVuSans-69" x="194.482422"/>
     <use xlink:href="#DejaVuSans-6e" x="222.265625"/>
     <use xlink:href="#DejaVuSans-20" x="285.644531"/>
     <use xlink:href="#DejaVuSans-47" x="317.431641"/>
     <use xlink:href="#DejaVuSans-72" x="394.921875"/>
     <use xlink:href="#DejaVuSans-61" x="436.035156"/>
     <use xlink:href="#DejaVuSans-70" x="497.314453"/>
     <use xlink:href="#DejaVuSans-68" x="560.791016"/>
    </g>
   </g>
  </g>
  <g id="axes_4">
   <g id="patch_30">
    <path d="M 7.2 354.958125 
L 204.141176 354.958125 
L 204.141176 203.758125 
L 7.2 203.758125 
z
" style="fill: #ffffff"/>
   </g>
   <g id="patch_31">
    <path d="M 180.64682 242.0177 
Q 152.408946 267.720044 124.997891 292.669811 
" clip-path="url(#p887bc90ad9)" style="fill: none; stroke: #000000; stroke-linecap: round"/>
    <path d="M 133.60662 290.242925 
L 124.997891 292.669811 
L 128.22162 284.326695 
L 133.60662 290.242925 
z
" clip-path="url(#p887bc90ad9)" style="stroke: #000000; stroke-linecap: round"/>
   </g>
   <g id="patch_32">
    <path d="M 110.165022 303.4006 
Q 78.757217 320.543995 48.330774 337.151731 
" clip-path="url(#p887bc90ad9)" style="fill: none; stroke: #000000; stroke-linecap: round"/>
    <path d="M 57.269254 336.829894 
L 48.330774 337.151731 
L 53.436392 329.807845 
L 57.269254 336.829894 
z
" clip-path="url(#p887bc90ad9)" style="stroke: #000000; stroke-linecap: round"/>
   </g>
   <g id="patch_33">
    <path d="M 34.192272 288.491751 
Q 36.520932 310.858595 38.733818 332.113416 
" clip-path="url(#p887bc90ad9)" style="fill: none; stroke: #000000; stroke-linecap: round"/>
    <path d="M 41.883894 323.742214 
L 38.733818 332.113416 
L 33.926902 324.570634 
L 41.883894 323.742214 
z
" clip-path="url(#p887bc90ad9)" style="stroke: #000000; stroke-linecap: round"/>
   </g>
   <g id="patch_34">
    <path d="M 25.515163 225.450107 
Q 28.792639 248.378366 31.911906 270.199843 
" clip-path="url(#p887bc90ad9)" style="fill: none; stroke: #000000; stroke-linecap: round"/>
    <path d="M 34.739604 261.714318 
L 31.911906 270.199843 
L 26.820105 262.84637 
L 34.739604 261.714318 
z
" clip-path="url(#p887bc90ad9)" style="stroke: #000000; stroke-linecap: round"/>
   </g>
   <g id="matplotlib.axis_7">
    <g id="xtick_15"/>
    <g id="xtick_16"/>
    <g id="xtick_17"/>
    <g id="xtick_18"/>
   </g>
   <g id="matplotlib.axis_8">
    <g id="ytick_14"/>
    <g id="ytick_15"/>
    <g id="ytick_16"/>
    <g id="ytick_17"/>
    <g id="ytick_18"/>
   </g>
   <g id="PathCollection_4">
    <g clip-path="url(#p887bc90ad9)">
     <use xlink:href="#mb1c58140a6" x="187.05124" y="236.188345" style="fill: #adade0; stroke: #adade0"/>
     <use xlink:href="#mb1c58140a6" x="117.767635" y="299.250848" style="fill: #adade0; stroke: #adade0"/>
     <use xlink:href="#mb1c58140a6" x="39.74621" y="341.837464" style="fill: #adade0; stroke: #adade0"/>
     <use xlink:href="#mb1c58140a6" x="33.295815" y="279.88126" style="fill: #adade0; stroke: #adade0"/>
     <use xlink:href="#mb1c58140a6" x="24.289937" y="216.878786" style="fill: #adade0; stroke: #adade0"/>
    </g>
   </g>
   <g id="patch_35">
    <path d="M 7.2 354.958125 
L 7.2 203.758125 
" style="fill: none; stroke: #000000; stroke-width: 0.8; stroke-linejoin: miter; stroke-linecap: square"/>
   </g>
   <g id="patch_36">
    <path d="M 204.141176 354.958125 
L 204.141176 203.758125 
" style="fill: none; stroke: #000000; stroke-width: 0.8; stroke-linejoin: miter; stroke-linecap: square"/>
   </g>
   <g id="patch_37">
    <path d="M 7.2 354.958125 
L 204.141176 354.958125 
" style="fill: none; stroke: #000000; stroke-width: 0.8; stroke-linejoin: miter; stroke-linecap: square"/>
   </g>
   <g id="patch_38">
    <path d="M 7.2 203.758125 
L 204.141176 203.758125 
" style="fill: none; stroke: #000000; stroke-width: 0.8; stroke-linejoin: miter; stroke-linecap: square"/>
   </g>
   <g id="text_19">
    <g clip-path="url(#p887bc90ad9)">
     <!-- 0 -->
     <g transform="translate(183.23374 239.499595) scale(0.12 -0.12)">
      <use xlink:href="#DejaVuSans-30"/>
     </g>
    </g>
   </g>
   <g id="text_20">
    <g clip-path="url(#p887bc90ad9)">
     <!-- 1 -->
     <g transform="translate(113.950135 302.562098) scale(0.12 -0.12)">
      <use xlink:href="#DejaVuSans-31"/>
     </g>
    </g>
   </g>
   <g id="text_21">
    <g clip-path="url(#p887bc90ad9)">
     <!-- 2 -->
     <g transform="translate(35.92871 345.148714) scale(0.12 -0.12)">
      <use xlink:href="#DejaVuSans-32"/>
     </g>
    </g>
   </g>
   <g id="text_22">
    <g clip-path="url(#p887bc90ad9)">
     <!-- 3 -->
     <g transform="translate(29.478315 283.19251) scale(0.12 -0.12)">
      <use xlink:href="#DejaVuSans-33"/>
     </g>
    </g>
   </g>
   <g id="text_23">
    <g clip-path="url(#p887bc90ad9)">
     <!-- 4 -->
     <g transform="translate(20.472437 220.190036) scale(0.12 -0.12)">
      <use xlink:href="#DejaVuSans-34"/>
     </g>
    </g>
   </g>
   <g id="text_24">
    <!-- Half Chain Graph -->
    <g transform="translate(54.346213 197.758125) scale(0.12 -0.12)">
     <defs>
      <path id="DejaVuSans-48" d="M 628 4666 
L 1259 4666 
L 1259 2753 
L 3553 2753 
L 3553 4666 
L 4184 4666 
L 4184 0 
L 3553 0 
L 3553 2222 
L 1259 2222 
L 1259 0 
L 628 0 
L 628 4666 
z
" transform="scale(0.015625)"/>
      <path id="DejaVuSans-66" d="M 2375 4863 
L 2375 4384 
L 1825 4384 
Q 1516 4384 1395 4259 
Q 1275 4134 1275 3809 
L 1275 3500 
L 2222 3500 
L 2222 3053 
L 1275 3053 
L 1275 0 
L 697 0 
L 697 3053 
L 147 3053 
L 147 3500 
L 697 3500 
L 697 3744 
Q 697 4328 969 4595 
Q 1241 4863 1831 4863 
L 2375 4863 
z
" transform="scale(0.015625)"/>
     </defs>
     <use xlink:href="#DejaVuSans-48"/>
     <use xlink:href="#DejaVuSans-61" x="75.195312"/>
     <use xlink:href="#DejaVuSans-6c" x="136.474609"/>
     <use xlink:href="#DejaVuSans-66" x="164.257812"/>
     <use xlink:href="#DejaVuSans-20" x="199.462891"/>
     <use xlink:href="#DejaVuSans-43" x="231.25"/>
     <use xlink:href="#DejaVuSans-68" x="301.074219"/>
     <use xlink:href="#DejaVuSans-61" x="364.453125"/>
     <use xlink:href="#DejaVuSans-69" x="425.732422"/>
     <use xlink:href="#DejaVuSans-6e" x="453.515625"/>
     <use xlink:href="#DejaVuSans-20" x="516.894531"/>
     <use xlink:href="#DejaVuSans-47" x="548.681641"/>
     <use xlink:href="#DejaVuSans-72" x="626.171875"/>
     <use xlink:href="#DejaVuSans-61" x="667.285156"/>
     <use xlink:href="#DejaVuSans-70" x="728.564453"/>
     <use xlink:href="#DejaVuSans-68" x="792.041016"/>
    </g>
   </g>
  </g>
  <g id="axes_5">
   <g id="patch_39">
    <path d="M 243.529412 354.958125 
L 440.470588 354.958125 
L 440.470588 203.758125 
L 243.529412 203.758125 
z
" style="fill: #ffffff"/>
   </g>
   <g id="patch_40">
    <path d="M 265.854983 279.08715 
Q 286.843745 251.432449 307.156591 224.668332 
" clip-path="url(#pfc935ff3ca)" style="fill: none; stroke: #000000; stroke-linecap: round"/>
    <path d="M 299.133887 228.622598 
L 307.156591 224.668332 
L 305.506381 233.459054 
L 299.133887 228.622598 
z
" clip-path="url(#pfc935ff3ca)" style="stroke: #000000; stroke-linecap: round"/>
   </g>
   <g id="patch_41">
    <path d="M 321.690943 217.70851 
Q 360.618351 221.454447 398.432867 225.093292 
" clip-path="url(#pfc935ff3ca)" style="fill: none; stroke: #000000; stroke-linecap: round"/>
    <path d="M 390.852797 220.345394 
L 398.432867 225.093292 
L 390.086506 228.308609 
L 390.852797 220.345394 
z
" clip-path="url(#pfc935ff3ca)" style="stroke: #000000; stroke-linecap: round"/>
   </g>
   <g id="patch_42">
    <path d="M 409.744673 234.543405 
Q 415.774083 267.090516 421.599839 298.538297 
" clip-path="url(#pfc935ff3ca)" style="fill: none; stroke: #000000; stroke-linecap: round"/>
    <path d="M 424.0757 289.943524 
L 421.599839 298.538297 
L 416.209538 291.400745 
L 424.0757 289.943524 
z
" clip-path="url(#pfc935ff3ca)" style="stroke: #000000; stroke-linecap: round"/>
   </g>
   <g id="patch_43">
    <path d="M 415.273306 311.1952 
Q 378.520374 324.994412 342.814132 338.400634 
" clip-path="url(#pfc935ff3ca)" style="fill: none; stroke: #000000; stroke-linecap: round"/>
    <path d="M 351.709635 339.333386 
L 342.814132 338.400634 
L 348.897635 331.843883 
L 351.709635 339.333386 
z
" clip-path="url(#pfc935ff3ca)" style="stroke: #000000; stroke-linecap: round"/>
   </g>
   <g id="patch_44">
    <path d="M 326.779413 336.575785 
Q 297.138824 313.910709 268.386372 291.924759 
" clip-path="url(#pfc935ff3ca)" style="fill: none; stroke: #000000; stroke-linecap: round"/>
    <path d="M 272.311649 299.961686 
L 268.386372 291.924759 
L 277.17108 293.606693 
L 272.311649 299.961686 
z
" clip-path="url(#pfc935ff3ca)" style="stroke: #000000; stroke-linecap: round"/>
   </g>
   <g id="matplotlib.axis_9">
    <g id="xtick_19"/>
    <g id="xtick_20"/>
    <g id="xtick_21"/>
    <g id="xtick_22"/>
    <g id="xtick_23"/>
   </g>
   <g id="matplotlib.axis_10">
    <g id="ytick_19"/>
    <g id="ytick_20"/>
    <g id="ytick_21"/>
   </g>
   <g id="PathCollection_5">
    <g clip-path="url(#pfc935ff3ca)">
     <use xlink:href="#mb1c58140a6" x="260.619349" y="285.985599" style="fill: #adade0; stroke: #adade0"/>
     <use xlink:href="#mb1c58140a6" x="313.06853" y="216.878786" style="fill: #adade0; stroke: #adade0"/>
     <use xlink:href="#mb1c58140a6" x="408.167559" y="226.03005" style="fill: #adade0; stroke: #adade0"/>
     <use xlink:href="#mb1c58140a6" x="423.380651" y="308.151226" style="fill: #adade0; stroke: #adade0"/>
     <use xlink:href="#mb1c58140a6" x="333.660452" y="341.837464" style="fill: #adade0; stroke: #adade0"/>
    </g>
   </g>
   <g id="patch_45">
    <path d="M 243.529412 354.958125 
L 243.529412 203.758125 
" style="fill: none; stroke: #000000; stroke-width: 0.8; stroke-linejoin: miter; stroke-linecap: square"/>
   </g>
   <g id="patch_46">
    <path d="M 440.470588 354.958125 
L 440.470588 203.758125 
" style="fill: none; stroke: #000000; stroke-width: 0.8; stroke-linejoin: miter; stroke-linecap: square"/>
   </g>
   <g id="patch_47">
    <path d="M 243.529412 354.958125 
L 440.470588 354.958125 
" style="fill: none; stroke: #000000; stroke-width: 0.8; stroke-linejoin: miter; stroke-linecap: square"/>
   </g>
   <g id="patch_48">
    <path d="M 243.529412 203.758125 
L 440.470588 203.758125 
" style="fill: none; stroke: #000000; stroke-width: 0.8; stroke-linejoin: miter; stroke-linecap: square"/>
   </g>
   <g id="text_25">
    <g clip-path="url(#pfc935ff3ca)">
     <!-- 0 -->
     <g transform="translate(256.801849 289.296849) scale(0.12 -0.12)">
      <use xlink:href="#DejaVuSans-30"/>
     </g>
    </g>
   </g>
   <g id="text_26">
    <g clip-path="url(#pfc935ff3ca)">
     <!-- 1 -->
     <g transform="translate(309.25103 220.190036) scale(0.12 -0.12)">
      <use xlink:href="#DejaVuSans-31"/>
     </g>
    </g>
   </g>
   <g id="text_27">
    <g clip-path="url(#pfc935ff3ca)">
     <!-- 2 -->
     <g transform="translate(404.350059 229.3413) scale(0.12 -0.12)">
      <use xlink:href="#DejaVuSans-32"/>
     </g>
    </g>
   </g>
   <g id="text_28">
    <g clip-path="url(#pfc935ff3ca)">
     <!-- 3 -->
     <g transform="translate(419.563151 311.462476) scale(0.12 -0.12)">
      <use xlink:href="#DejaVuSans-33"/>
     </g>
    </g>
   </g>
   <g id="text_29">
    <g clip-path="url(#pfc935ff3ca)">
     <!-- 4 -->
     <g transform="translate(329.842952 345.148714) scale(0.12 -0.12)">
      <use xlink:href="#DejaVuSans-34"/>
     </g>
    </g>
   </g>
   <g id="text_30">
    <!-- Cycle Graph -->
    <g transform="translate(305.290313 197.758125) scale(0.12 -0.12)">
     <defs>
      <path id="DejaVuSans-79" d="M 2059 -325 
Q 1816 -950 1584 -1140 
Q 1353 -1331 966 -1331 
L 506 -1331 
L 506 -850 
L 844 -850 
Q 1081 -850 1212 -737 
Q 1344 -625 1503 -206 
L 1606 56 
L 191 3500 
L 800 3500 
L 1894 763 
L 2988 3500 
L 3597 3500 
L 2059 -325 
z
" transform="scale(0.015625)"/>
     </defs>
     <use xlink:href="#DejaVuSans-43"/>
     <use xlink:href="#DejaVuSans-79" x="69.824219"/>
     <use xlink:href="#DejaVuSans-63" x="129.003906"/>
     <use xlink:href="#DejaVuSans-6c" x="183.984375"/>
     <use xlink:href="#DejaVuSans-65" x="211.767578"/>
     <use xlink:href="#DejaVuSans-20" x="273.291016"/>
     <use xlink:href="#DejaVuSans-47" x="305.078125"/>
     <use xlink:href="#DejaVuSans-72" x="382.568359"/>
     <use xlink:href="#DejaVuSans-61" x="423.681641"/>
     <use xlink:href="#DejaVuSans-70" x="484.960938"/>
     <use xlink:href="#DejaVuSans-68" x="548.4375"/>
    </g>
   </g>
  </g>
  <g id="axes_6">
   <g id="patch_49">
    <path d="M 479.858824 354.958125 
L 676.8 354.958125 
L 676.8 203.758125 
L 479.858824 203.758125 
z
" style="fill: #ffffff"/>
   </g>
   <g id="patch_50">
    <path d="M 497.904252 316.052693 
Q 500.944374 288.669955 503.861125 262.398422 
" clip-path="url(#p79241e694c)" style="fill: none; stroke: #000000; stroke-linecap: round"/>
    <path d="M 499.00279 269.908188 
L 503.861125 262.398422 
L 506.953936 270.79095 
L 499.00279 269.908188 
z
" clip-path="url(#p79241e694c)" style="stroke: #000000; stroke-linecap: round"/>
   </g>
   <g id="patch_51">
    <path d="M 513.215383 250.121191 
Q 562.80854 234.779752 611.333601 219.768724 
" clip-path="url(#p79241e694c)" style="fill: none; stroke: #000000; stroke-linecap: round"/>
    <path d="M 602.508816 218.311618 
L 611.333601 219.768724 
L 604.873045 225.954289 
L 602.508816 218.311618 
z
" clip-path="url(#p79241e694c)" style="stroke: #000000; stroke-linecap: round"/>
   </g>
   <g id="patch_52">
    <path d="M 625.333422 224.181072 
Q 640.193808 247.478873 654.452955 269.834064 
" clip-path="url(#p79241e694c)" style="fill: none; stroke: #000000; stroke-linecap: round"/>
    <path d="M 653.523223 260.938245 
L 654.452955 269.834064 
L 646.778461 265.240358 
L 653.523223 260.938245 
z
" clip-path="url(#p79241e694c)" style="stroke: #000000; stroke-linecap: round"/>
   </g>
   <g id="patch_53">
    <path d="M 655.052337 270.773762 
Q 640.191951 247.475962 625.932803 225.12077 
" clip-path="url(#p79241e694c)" style="fill: none; stroke: #000000; stroke-linecap: round"/>
    <path d="M 626.862535 234.016589 
L 625.932803 225.12077 
L 633.607298 229.714476 
L 626.862535 234.016589 
z
" clip-path="url(#p79241e694c)" style="stroke: #000000; stroke-linecap: round"/>
   </g>
   <g id="patch_54">
    <path d="M 655.960487 285.878882 
Q 644.390447 309.956032 633.304658 333.025461 
" clip-path="url(#p79241e694c)" style="fill: none; stroke: #000000; stroke-linecap: round"/>
    <path d="M 640.375004 327.547304 
L 633.304658 333.025461 
L 633.16434 324.08229 
L 640.375004 327.547304 
z
" clip-path="url(#p79241e694c)" style="stroke: #000000; stroke-linecap: round"/>
   </g>
   <g id="patch_55">
    <path d="M 620.485956 340.721341 
Q 563.009567 333.248208 506.64188 325.91923 
" clip-path="url(#p79241e694c)" style="fill: none; stroke: #000000; stroke-linecap: round"/>
    <path d="M 514.059361 330.917327 
L 506.64188 325.91923 
L 515.090846 322.984103 
L 514.059361 330.917327 
z
" clip-path="url(#p79241e694c)" style="stroke: #000000; stroke-linecap: round"/>
   </g>
   <g id="matplotlib.axis_11">
    <g id="xtick_24"/>
    <g id="xtick_25"/>
    <g id="xtick_26"/>
   </g>
   <g id="matplotlib.axis_12">
    <g id="ytick_22"/>
    <g id="ytick_23"/>
    <g id="ytick_24"/>
    <g id="ytick_25"/>
    <g id="ytick_26"/>
   </g>
   <g id="PathCollection_6">
    <g clip-path="url(#p79241e694c)">
     <use xlink:href="#mb1c58140a6" x="496.94876" y="324.658921" style="fill: #adade0; stroke: #adade0"/>
     <use xlink:href="#mb1c58140a6" x="504.939968" y="252.681157" style="fill: #adade0; stroke: #adade0"/>
     <use xlink:href="#mb1c58140a6" x="620.675695" y="216.878786" style="fill: #adade0; stroke: #adade0"/>
     <use xlink:href="#mb1c58140a6" x="659.710063" y="278.076048" style="fill: #adade0; stroke: #adade0"/>
     <use xlink:href="#mb1c58140a6" x="629.070136" y="341.837464" style="fill: #adade0; stroke: #adade0"/>
    </g>
   </g>
   <g id="patch_56">
    <path d="M 479.858824 354.958125 
L 479.858824 203.758125 
" style="fill: none; stroke: #000000; stroke-width: 0.8; stroke-linejoin: miter; stroke-linecap: square"/>
   </g>
   <g id="patch_57">
    <path d="M 676.8 354.958125 
L 676.8 203.758125 
" style="fill: none; stroke: #000000; stroke-width: 0.8; stroke-linejoin: miter; stroke-linecap: square"/>
   </g>
   <g id="patch_58">
    <path d="M 479.858824 354.958125 
L 676.8 354.958125 
" style="fill: none; stroke: #000000; stroke-width: 0.8; stroke-linejoin: miter; stroke-linecap: square"/>
   </g>
   <g id="patch_59">
    <path d="M 479.858824 203.758125 
L 676.8 203.758125 
" style="fill: none; stroke: #000000; stroke-width: 0.8; stroke-linejoin: miter; stroke-linecap: square"/>
   </g>
   <g id="text_31">
    <g clip-path="url(#p79241e694c)">
     <!-- 0 -->
     <g transform="translate(493.13126 327.970171) scale(0.12 -0.12)">
      <use xlink:href="#DejaVuSans-30"/>
     </g>
    </g>
   </g>
   <g id="text_32">
    <g clip-path="url(#p79241e694c)">
     <!-- 1 -->
     <g transform="translate(501.122468 255.992407) scale(0.12 -0.12)">
      <use xlink:href="#DejaVuSans-31"/>
     </g>
    </g>
   </g>
   <g id="text_33">
    <g clip-path="url(#p79241e694c)">
     <!-- 2 -->
     <g transform="translate(616.858195 220.190036) scale(0.12 -0.12)">
      <use xlink:href="#DejaVuSans-32"/>
     </g>
    </g>
   </g>
   <g id="text_34">
    <g clip-path="url(#p79241e694c)">
     <!-- 3 -->
     <g transform="translate(655.892563 281.387298) scale(0.12 -0.12)">
      <use xlink:href="#DejaVuSans-33"/>
     </g>
    </g>
   </g>
   <g id="text_35">
    <g clip-path="url(#p79241e694c)">
     <!-- 4 -->
     <g transform="translate(625.252636 345.148714) scale(0.12 -0.12)">
      <use xlink:href="#DejaVuSans-34"/>
     </g>
    </g>
   </g>
   <g id="text_36">
    <!-- Half Cycle Graph -->
    <g transform="translate(527.744724 197.758125) scale(0.12 -0.12)">
     <use xlink:href="#DejaVuSans-48"/>
     <use xlink:href="#DejaVuSans-61" x="75.195312"/>
     <use xlink:href="#DejaVuSans-6c" x="136.474609"/>
     <use xlink:href="#DejaVuSans-66" x="164.257812"/>
     <use xlink:href="#DejaVuSans-20" x="199.462891"/>
     <use xlink:href="#DejaVuSans-43" x="231.25"/>
     <use xlink:href="#DejaVuSans-79" x="301.074219"/>
     <use xlink:href="#DejaVuSans-63" x="360.253906"/>
     <use xlink:href="#DejaVuSans-6c" x="415.234375"/>
     <use xlink:href="#DejaVuSans-65" x="443.017578"/>
     <use xlink:href="#DejaVuSans-20" x="504.541016"/>
     <use xlink:href="#DejaVuSans-47" x="536.328125"/>
     <use xlink:href="#DejaVuSans-72" x="613.818359"/>
     <use xlink:href="#DejaVuSans-61" x="654.931641"/>
     <use xlink:href="#DejaVuSans-70" x="716.210938"/>
     <use xlink:href="#DejaVuSans-68" x="779.6875"/>
    </g>
   </g>
  </g>
 </g>
 <defs>
  <clipPath id="pa3bb67f7b2">
   <rect x="7.2" y="22.318125" width="196.941176" height="151.2"/>
  </clipPath>
  <clipPath id="pfad59072d4">
   <rect x="243.529412" y="22.318125" width="196.941176" height="151.2"/>
  </clipPath>
  <clipPath id="pf0a6151f8d">
   <rect x="479.858824" y="22.318125" width="196.941176" height="151.2"/>
  </clipPath>
  <clipPath id="p887bc90ad9">
   <rect x="7.2" y="203.758125" width="196.941176" height="151.2"/>
  </clipPath>
  <clipPath id="pfc935ff3ca">
   <rect x="243.529412" y="203.758125" width="196.941176" height="151.2"/>
  </clipPath>
  <clipPath id="p79241e694c">
   <rect x="479.858824" y="203.758125" width="196.941176" height="151.2"/>
  </clipPath>
 </defs>
</svg>
