<?xml version="1.0" encoding="utf-8" standalone="no"?>
<!DOCTYPE svg PUBLIC "-//W3C//DTD SVG 1.1//EN"
  "http://www.w3.org/Graphics/SVG/1.1/DTD/svg11.dtd">
<svg xmlns:xlink="http://www.w3.org/1999/xlink" width="371.52pt" height="280.512pt" viewBox="0 0 371.52 280.512" xmlns="http://www.w3.org/2000/svg" version="1.1">
 <metadata>
  <rdf:RDF xmlns:dc="http://purl.org/dc/elements/1.1/" xmlns:cc="http://creativecommons.org/ns#" xmlns:rdf="http://www.w3.org/1999/02/22-rdf-syntax-ns#">
   <cc:Work>
    <dc:type rdf:resource="http://purl.org/dc/dcmitype/StillImage"/>
    <dc:date>2022-10-15T07:39:24.689310</dc:date>
    <dc:format>image/svg+xml</dc:format>
    <dc:creator>
     <cc:Agent>
      <dc:title>Matplotlib v3.6.1, https://matplotlib.org/</dc:title>
     </cc:Agent>
    </dc:creator>
   </cc:Work>
  </rdf:RDF>
 </metadata>
 <defs>
  <style type="text/css">*{stroke-linejoin: round; stroke-linecap: butt}</style>
 </defs>
 <g id="figure_1">
  <g id="patch_1">
   <path d="M 0 280.512 
L 371.52 280.512 
L 371.52 0 
L 0 0 
z
" style="fill: #ffffff"/>
  </g>
  <g id="axes_1">
   <g id="patch_2">
    <path d="M 7.2 273.312 
L 364.32 273.312 
L 364.32 7.2 
L 7.2 7.2 
z
" style="fill: #ffffff"/>
   </g>
   <g id="patch_3">
    <path d="M 142.805918 35.661858 
Q 93.896392 74.301106 45.86416 112.247279 
" clip-path="url(#p8a6eea8066)" style="fill: none; stroke: #000000; stroke-linecap: round"/>
    <path d="M 54.621193 110.426737 
L 45.86416 112.247279 
L 49.661947 104.149327 
L 54.621193 110.426737 
z
" clip-path="url(#p8a6eea8066)" style="stroke: #000000; stroke-linecap: round"/>
   </g>
   <g id="patch_4">
    <path d="M 157.539219 33.761415 
Q 241.466184 70.44551 324.368703 106.681824 
" clip-path="url(#p8a6eea8066)" style="fill: none; stroke: #000000; stroke-linecap: round"/>
    <path d="M 318.640386 99.812589 
L 324.368703 106.681824 
L 315.436325 107.142936 
L 318.640386 99.812589 
z
" clip-path="url(#p8a6eea8066)" style="stroke: #000000; stroke-linecap: round"/>
   </g>
   <g id="patch_5">
    <path d="M 151.255498 38.790818 
Q 155.575452 61.00234 159.681958 82.116393 
" clip-path="url(#p8a6eea8066)" style="fill: none; stroke: #000000; stroke-linecap: round"/>
    <path d="M 162.081071 73.499882 
L 159.681958 82.116393 
L 154.228217 75.027196 
L 162.081071 73.499882 
z
" clip-path="url(#p8a6eea8066)" style="stroke: #000000; stroke-linecap: round"/>
   </g>
   <g id="patch_6">
    <path d="M 219.265491 242.81497 
Q 204.932917 219.221272 191.180809 196.583115 
" clip-path="url(#p8a6eea8066)" style="fill: none; stroke: #000000; stroke-linecap: round"/>
    <path d="M 191.915645 205.49715 
L 191.180809 196.583115 
L 198.752938 201.343667 
L 191.915645 205.49715 
z
" clip-path="url(#p8a6eea8066)" style="stroke: #000000; stroke-linecap: round"/>
   </g>
   <g id="patch_7">
    <path d="M 222.964271 241.593673 
Q 216.334866 170.055824 209.808627 99.631239 
" clip-path="url(#p8a6eea8066)" style="fill: none; stroke: #000000; stroke-linecap: round"/>
    <path d="M 206.563889 107.966206 
L 209.808627 99.631239 
L 214.529757 107.22801 
L 206.563889 107.966206 
z
" clip-path="url(#p8a6eea8066)" style="stroke: #000000; stroke-linecap: round"/>
   </g>
   <g id="patch_8">
    <path d="M 193.767889 184.187377 
Q 259.718003 149.413172 324.679143 115.160434 
" clip-path="url(#p8a6eea8066)" style="fill: none; stroke: #000000; stroke-linecap: round"/>
    <path d="M 315.736954 115.353484 
L 324.679143 115.160434 
L 319.46827 122.430015 
L 315.736954 115.353484 
z
" clip-path="url(#p8a6eea8066)" style="stroke: #000000; stroke-linecap: round"/>
   </g>
   <g id="patch_9">
    <path d="M 189.994991 180.492837 
Q 198.18906 164.198898 205.880821 148.903801 
" clip-path="url(#p8a6eea8066)" style="fill: none; stroke: #000000; stroke-linecap: round"/>
    <path d="M 198.713027 154.253822 
L 205.880821 148.903801 
L 205.860161 157.848049 
L 198.713027 154.253822 
z
" clip-path="url(#p8a6eea8066)" style="stroke: #000000; stroke-linecap: round"/>
   </g>
   <g id="patch_10">
    <path d="M 188.061143 179.792158 
Q 197.505605 139.060788 206.697526 99.418557 
" clip-path="url(#p8a6eea8066)" style="fill: none; stroke: #000000; stroke-linecap: round"/>
    <path d="M 200.993871 106.308283 
L 206.697526 99.418557 
L 208.787113 108.115317 
L 200.993871 106.308283 
z
" clip-path="url(#p8a6eea8066)" style="stroke: #000000; stroke-linecap: round"/>
   </g>
   <g id="patch_11">
    <path d="M 46.731305 116.88837 
Q 123.546368 104.101933 199.258572 91.499076 
" clip-path="url(#p8a6eea8066)" style="fill: none; stroke: #000000; stroke-linecap: round"/>
    <path d="M 190.710361 88.866951 
L 199.258572 91.499076 
L 192.023946 96.75837 
L 190.710361 88.866951 
z
" clip-path="url(#p8a6eea8066)" style="stroke: #000000; stroke-linecap: round"/>
   </g>
   <g id="patch_12">
    <path d="M 41.918908 126.123827 
Q 61.590211 167.340851 80.779953 207.548866 
" clip-path="url(#p8a6eea8066)" style="fill: none; stroke: #000000; stroke-linecap: round"/>
    <path d="M 80.944122 198.606101 
L 80.779953 207.548866 
L 73.724242 202.051872 
L 80.944122 198.606101 
z
" clip-path="url(#p8a6eea8066)" style="stroke: #000000; stroke-linecap: round"/>
   </g>
   <g id="patch_13">
    <path d="M 324.906876 112.623019 
Q 271.800275 125.384588 219.780762 137.884928 
" clip-path="url(#p8a6eea8066)" style="fill: none; stroke: #000000; stroke-linecap: round"/>
    <path d="M 228.493927 139.905014 
L 219.780762 137.884928 
L 226.62473 132.126447 
L 228.493927 139.905014 
z
" clip-path="url(#p8a6eea8066)" style="stroke: #000000; stroke-linecap: round"/>
   </g>
   <g id="patch_14">
    <path d="M 146.823038 161.737379 
Q 235.900323 137.313234 323.89937 113.184732 
" clip-path="url(#p8a6eea8066)" style="fill: none; stroke: #000000; stroke-linecap: round"/>
    <path d="M 315.12641 111.442558 
L 323.89937 113.184732 
L 317.241855 119.157796 
L 315.12641 111.442558 
z
" clip-path="url(#p8a6eea8066)" style="stroke: #000000; stroke-linecap: round"/>
   </g>
   <g id="patch_15">
    <path d="M 146.688099 161.29712 
Q 174.372672 152.098324 200.996248 143.252068 
" clip-path="url(#p8a6eea8066)" style="fill: none; stroke: #000000; stroke-linecap: round"/>
    <path d="M 192.143083 141.978693 
L 200.996248 143.252068 
L 194.665649 149.570575 
L 192.143083 141.978693 
z
" clip-path="url(#p8a6eea8066)" style="stroke: #000000; stroke-linecap: round"/>
   </g>
   <g id="patch_16">
    <path d="M 132.278834 170.088004 
Q 111.730211 190.199964 91.9806 209.529889 
" clip-path="url(#p8a6eea8066)" style="fill: none; stroke: #000000; stroke-linecap: round"/>
    <path d="M 100.495766 206.792745 
L 91.9806 209.529889 
L 94.899985 201.07547 
L 100.495766 206.792745 
z
" clip-path="url(#p8a6eea8066)" style="stroke: #000000; stroke-linecap: round"/>
   </g>
   <g id="patch_17">
    <path d="M 206.08688 132.588056 
Q 179.93826 85.231657 154.330069 38.853999 
" clip-path="url(#p8a6eea8066)" style="fill: none; stroke: #000000; stroke-linecap: round"/>
    <path d="M 154.695407 47.790807 
L 154.330069 38.853999 
L 161.698718 43.923813 
L 154.695407 47.790807 
z
" clip-path="url(#p8a6eea8066)" style="stroke: #000000; stroke-linecap: round"/>
   </g>
   <g id="patch_18">
    <path d="M 218.696534 138.145469 
Q 271.803135 125.383901 323.822648 112.883561 
" clip-path="url(#p8a6eea8066)" style="fill: none; stroke: #000000; stroke-linecap: round"/>
    <path d="M 315.109482 110.863474 
L 323.822648 112.883561 
L 316.97868 118.642041 
L 315.109482 110.863474 
z
" clip-path="url(#p8a6eea8066)" style="stroke: #000000; stroke-linecap: round"/>
   </g>
   <g id="patch_19">
    <path d="M 202.056056 142.899924 
Q 174.371483 152.09872 147.747907 160.944976 
" clip-path="url(#p8a6eea8066)" style="fill: none; stroke: #000000; stroke-linecap: round"/>
    <path d="M 156.601071 162.218351 
L 147.747907 160.944976 
L 154.078505 154.626469 
L 156.601071 162.218351 
z
" clip-path="url(#p8a6eea8066)" style="stroke: #000000; stroke-linecap: round"/>
   </g>
   <g id="patch_20">
    <path d="M 202.875036 144.669442 
Q 147.632891 178.269869 93.345963 211.289296 
" clip-path="url(#p8a6eea8066)" style="fill: none; stroke: #000000; stroke-linecap: round"/>
    <path d="M 102.259586 210.549485 
L 93.345963 211.289296 
L 98.102288 203.714511 
L 102.259586 210.549485 
z
" clip-path="url(#p8a6eea8066)" style="stroke: #000000; stroke-linecap: round"/>
   </g>
   <g id="patch_21">
    <path d="M 159.895375 83.213702 
Q 155.575421 61.00218 151.468915 39.888127 
" clip-path="url(#p8a6eea8066)" style="fill: none; stroke: #000000; stroke-linecap: round"/>
    <path d="M 149.069802 48.504638 
L 151.468915 39.888127 
L 156.922656 46.977324 
L 149.069802 48.504638 
z
" clip-path="url(#p8a6eea8066)" style="stroke: #000000; stroke-linecap: round"/>
   </g>
   <g id="patch_22">
    <path d="M 163.683343 100.103667 
Q 173.826463 139.969019 183.693901 178.75086 
" clip-path="url(#p8a6eea8066)" style="fill: none; stroke: #000000; stroke-linecap: round"/>
    <path d="M 185.597766 170.011563 
L 183.693901 178.75086 
L 177.844783 171.98419 
L 185.597766 170.011563 
z
" clip-path="url(#p8a6eea8066)" style="stroke: #000000; stroke-linecap: round"/>
   </g>
   <g id="patch_23">
    <path d="M 153.081662 93.537685 
Q 99.869471 105.011064 47.750198 116.248793 
" clip-path="url(#p8a6eea8066)" style="fill: none; stroke: #000000; stroke-linecap: round"/>
    <path d="M 56.413568 118.472759 
L 47.750198 116.248793 
L 54.727393 110.652477 
L 56.413568 118.472759 
z
" clip-path="url(#p8a6eea8066)" style="stroke: #000000; stroke-linecap: round"/>
   </g>
   <g id="patch_24">
    <path d="M 170.158847 92.658855 
Q 247.440931 101.1557 323.611679 109.530359 
" clip-path="url(#p8a6eea8066)" style="fill: none; stroke: #000000; stroke-linecap: round"/>
    <path d="M 316.096747 104.680019 
L 323.611679 109.530359 
L 315.222448 112.632101 
L 316.096747 104.680019 
z
" clip-path="url(#p8a6eea8066)" style="stroke: #000000; stroke-linecap: round"/>
   </g>
   <g id="patch_25">
    <path d="M 167.689424 97.819618 
Q 185.91045 115.940629 203.338734 133.273249 
" clip-path="url(#p8a6eea8066)" style="fill: none; stroke: #000000; stroke-linecap: round"/>
    <path d="M 200.486966 124.795784 
L 203.338734 133.273249 
L 194.845701 130.468185 
L 200.486966 124.795784 
z
" clip-path="url(#p8a6eea8066)" style="stroke: #000000; stroke-linecap: round"/>
   </g>
   <g id="patch_26">
    <path d="M 170.199519 91.379865 
Q 185.22718 90.802658 199.13763 90.268364 
" clip-path="url(#p8a6eea8066)" style="fill: none; stroke: #000000; stroke-linecap: round"/>
    <path d="M 190.99 86.578361 
L 199.13763 90.268364 
L 191.29705 94.572467 
L 190.99 86.578361 
z
" clip-path="url(#p8a6eea8066)" style="stroke: #000000; stroke-linecap: round"/>
   </g>
   <g id="patch_27">
    <path d="M 206.950214 98.328784 
Q 197.505752 139.060154 188.313831 178.702385 
" clip-path="url(#p8a6eea8066)" style="fill: none; stroke: #000000; stroke-linecap: round"/>
    <path d="M 194.017486 171.81266 
L 188.313831 178.702385 
L 186.224244 170.005625 
L 194.017486 171.81266 
z
" clip-path="url(#p8a6eea8066)" style="stroke: #000000; stroke-linecap: round"/>
   </g>
   <g id="patch_28">
    <path d="M 217.445924 91.314274 
Q 271.117751 100.245937 323.686712 108.99407 
" clip-path="url(#p8a6eea8066)" style="fill: none; stroke: #000000; stroke-linecap: round"/>
    <path d="M 316.451855 103.735091 
L 323.686712 108.99407 
L 315.138615 111.626568 
L 316.451855 103.735091 
z
" clip-path="url(#p8a6eea8066)" style="stroke: #000000; stroke-linecap: round"/>
   </g>
   <g id="patch_29">
    <path d="M 202.941304 96.171313 
Q 173.687861 126.961068 145.204507 156.94029 
" clip-path="url(#p8a6eea8066)" style="fill: none; stroke: #000000; stroke-linecap: round"/>
    <path d="M 153.614666 153.895749 
L 145.204507 156.94029 
L 147.814969 148.385438 
L 153.614666 153.895749 
z
" clip-path="url(#p8a6eea8066)" style="stroke: #000000; stroke-linecap: round"/>
   </g>
   <g id="patch_30">
    <path d="M 209.141563 98.549766 
Q 209.589706 115.032333 210.007463 130.397279 
" clip-path="url(#p8a6eea8066)" style="fill: none; stroke: #000000; stroke-linecap: round"/>
    <path d="M 213.788554 122.291519 
L 210.007463 130.397279 
L 205.791509 122.50895 
L 213.788554 122.291519 
z
" clip-path="url(#p8a6eea8066)" style="stroke: #000000; stroke-linecap: round"/>
   </g>
   <g id="patch_31">
    <path d="M 93.331431 214.049823 
Q 135.546478 202.299961 176.684433 190.849889 
" clip-path="url(#p8a6eea8066)" style="fill: none; stroke: #000000; stroke-linecap: round"/>
    <path d="M 167.904832 189.141497 
L 176.684433 190.849889 
L 170.049959 196.848535 
L 167.904832 189.141497 
z
" clip-path="url(#p8a6eea8066)" style="stroke: #000000; stroke-linecap: round"/>
   </g>
   <g id="patch_32">
    <path d="M 89.520782 208.994827 
Q 123.269371 154.04184 156.432865 100.041566 
" clip-path="url(#p8a6eea8066)" style="fill: none; stroke: #000000; stroke-linecap: round"/>
    <path d="M 148.837731 104.765329 
L 156.432865 100.041566 
L 155.654795 108.951931 
L 148.837731 104.765329 
z
" clip-path="url(#p8a6eea8066)" style="stroke: #000000; stroke-linecap: round"/>
   </g>
   <g id="matplotlib.axis_1">
    <g id="xtick_1"/>
    <g id="xtick_2"/>
    <g id="xtick_3"/>
    <g id="xtick_4"/>
    <g id="xtick_5"/>
    <g id="xtick_6"/>
    <g id="xtick_7"/>
    <g id="xtick_8"/>
    <g id="xtick_9"/>
   </g>
   <g id="matplotlib.axis_2">
    <g id="ytick_1"/>
    <g id="ytick_2"/>
    <g id="ytick_3"/>
    <g id="ytick_4"/>
    <g id="ytick_5"/>
    <g id="ytick_6"/>
    <g id="ytick_7"/>
   </g>
   <g id="PathCollection_1">
    <defs>
     <path id="m4045da09ab" d="M 0 8.660254 
C 2.296726 8.660254 4.499694 7.747755 6.123724 6.123724 
C 7.747755 4.499694 8.660254 2.296726 8.660254 0 
C 8.660254 -2.296726 7.747755 -4.499694 6.123724 -6.123724 
C 4.499694 -7.747755 2.296726 -8.660254 0 -8.660254 
C -2.296726 -8.660254 -4.499694 -7.747755 -6.123724 -6.123724 
C -7.747755 -4.499694 -8.660254 -2.296726 -8.660254 0 
C -8.660254 2.296726 -7.747755 4.499694 -6.123724 6.123724 
C -4.499694 7.747755 -2.296726 8.660254 0 8.660254 
z
" style="stroke: #adade0"/>
    </defs>
    <g clip-path="url(#p8a6eea8066)">
     <use xlink:href="#m4045da09ab" x="149.60262" y="30.292364" style="fill: #adade0; stroke: #adade0"/>
     <use xlink:href="#m4045da09ab" x="223.763639" y="250.219636" style="fill: #adade0; stroke: #adade0"/>
     <use xlink:href="#m4045da09ab" x="186.105157" y="188.227785" style="fill: #adade0; stroke: #adade0"/>
     <use xlink:href="#m4045da09ab" x="38.189752" y="118.310175" style="fill: #adade0; stroke: #adade0"/>
     <use xlink:href="#m4045da09ab" x="333.330248" y="110.598875" style="fill: #adade0; stroke: #adade0"/>
     <use xlink:href="#m4045da09ab" x="138.470993" y="164.027431" style="fill: #adade0; stroke: #adade0"/>
     <use xlink:href="#m4045da09ab" x="210.273162" y="140.169613" style="fill: #adade0; stroke: #adade0"/>
     <use xlink:href="#m4045da09ab" x="161.548253" y="91.712156" style="fill: #adade0; stroke: #adade0"/>
     <use xlink:href="#m4045da09ab" x="208.906199" y="89.893157" style="fill: #adade0; stroke: #adade0"/>
     <use xlink:href="#m4045da09ab" x="84.990591" y="216.371359" style="fill: #adade0; stroke: #adade0"/>
    </g>
   </g>
   <g id="patch_33">
    <path d="M 7.2 273.312 
L 7.2 7.2 
" style="fill: none; stroke: #000000; stroke-width: 0.8; stroke-linejoin: miter; stroke-linecap: square"/>
   </g>
   <g id="patch_34">
    <path d="M 364.32 273.312 
L 364.32 7.2 
" style="fill: none; stroke: #000000; stroke-width: 0.8; stroke-linejoin: miter; stroke-linecap: square"/>
   </g>
   <g id="patch_35">
    <path d="M 7.2 273.312 
L 364.32 273.312 
" style="fill: none; stroke: #000000; stroke-width: 0.8; stroke-linejoin: miter; stroke-linecap: square"/>
   </g>
   <g id="patch_36">
    <path d="M 7.2 7.2 
L 364.32 7.2 
" style="fill: none; stroke: #000000; stroke-width: 0.8; stroke-linejoin: miter; stroke-linecap: square"/>
   </g>
   <g id="text_1">
    <g clip-path="url(#p8a6eea8066)">
     <!-- 0 -->
     <g transform="translate(145.78512 33.603614) scale(0.12 -0.12)">
      <defs>
       <path id="DejaVuSans-30" d="M 2034 4250 
Q 1547 4250 1301 3770 
Q 1056 3291 1056 2328 
Q 1056 1369 1301 889 
Q 1547 409 2034 409 
Q 2525 409 2770 889 
Q 3016 1369 3016 2328 
Q 3016 3291 2770 3770 
Q 2525 4250 2034 4250 
z
M 2034 4750 
Q 2819 4750 3233 4129 
Q 3647 3509 3647 2328 
Q 3647 1150 3233 529 
Q 2819 -91 2034 -91 
Q 1250 -91 836 529 
Q 422 1150 422 2328 
Q 422 3509 836 4129 
Q 1250 4750 2034 4750 
z
" transform="scale(0.015625)"/>
      </defs>
      <use xlink:href="#DejaVuSans-30"/>
     </g>
    </g>
   </g>
   <g id="text_2">
    <g clip-path="url(#p8a6eea8066)">
     <!-- 1 -->
     <g transform="translate(219.946139 253.530886) scale(0.12 -0.12)">
      <defs>
       <path id="DejaVuSans-31" d="M 794 531 
L 1825 531 
L 1825 4091 
L 703 3866 
L 703 4441 
L 1819 4666 
L 2450 4666 
L 2450 531 
L 3481 531 
L 3481 0 
L 794 0 
L 794 531 
z
" transform="scale(0.015625)"/>
      </defs>
      <use xlink:href="#DejaVuSans-31"/>
     </g>
    </g>
   </g>
   <g id="text_3">
    <g clip-path="url(#p8a6eea8066)">
     <!-- 2 -->
     <g transform="translate(182.287657 191.539035) scale(0.12 -0.12)">
      <defs>
       <path id="DejaVuSans-32" d="M 1228 531 
L 3431 531 
L 3431 0 
L 469 0 
L 469 531 
Q 828 903 1448 1529 
Q 2069 2156 2228 2338 
Q 2531 2678 2651 2914 
Q 2772 3150 2772 3378 
Q 2772 3750 2511 3984 
Q 2250 4219 1831 4219 
Q 1534 4219 1204 4116 
Q 875 4013 500 3803 
L 500 4441 
Q 881 4594 1212 4672 
Q 1544 4750 1819 4750 
Q 2544 4750 2975 4387 
Q 3406 4025 3406 3419 
Q 3406 3131 3298 2873 
Q 3191 2616 2906 2266 
Q 2828 2175 2409 1742 
Q 1991 1309 1228 531 
z
" transform="scale(0.015625)"/>
      </defs>
      <use xlink:href="#DejaVuSans-32"/>
     </g>
    </g>
   </g>
   <g id="text_4">
    <g clip-path="url(#p8a6eea8066)">
     <!-- 3 -->
     <g transform="translate(34.372252 121.621425) scale(0.12 -0.12)">
      <defs>
       <path id="DejaVuSans-33" d="M 2597 2516 
Q 3050 2419 3304 2112 
Q 3559 1806 3559 1356 
Q 3559 666 3084 287 
Q 2609 -91 1734 -91 
Q 1441 -91 1130 -33 
Q 819 25 488 141 
L 488 750 
Q 750 597 1062 519 
Q 1375 441 1716 441 
Q 2309 441 2620 675 
Q 2931 909 2931 1356 
Q 2931 1769 2642 2001 
Q 2353 2234 1838 2234 
L 1294 2234 
L 1294 2753 
L 1863 2753 
Q 2328 2753 2575 2939 
Q 2822 3125 2822 3475 
Q 2822 3834 2567 4026 
Q 2313 4219 1838 4219 
Q 1578 4219 1281 4162 
Q 984 4106 628 3988 
L 628 4550 
Q 988 4650 1302 4700 
Q 1616 4750 1894 4750 
Q 2613 4750 3031 4423 
Q 3450 4097 3450 3541 
Q 3450 3153 3228 2886 
Q 3006 2619 2597 2516 
z
" transform="scale(0.015625)"/>
      </defs>
      <use xlink:href="#DejaVuSans-33"/>
     </g>
    </g>
   </g>
   <g id="text_5">
    <g clip-path="url(#p8a6eea8066)">
     <!-- 4 -->
     <g transform="translate(329.512748 113.910125) scale(0.12 -0.12)">
      <defs>
       <path id="DejaVuSans-34" d="M 2419 4116 
L 825 1625 
L 2419 1625 
L 2419 4116 
z
M 2253 4666 
L 3047 4666 
L 3047 1625 
L 3713 1625 
L 3713 1100 
L 3047 1100 
L 3047 0 
L 2419 0 
L 2419 1100 
L 313 1100 
L 313 1709 
L 2253 4666 
z
" transform="scale(0.015625)"/>
      </defs>
      <use xlink:href="#DejaVuSans-34"/>
     </g>
    </g>
   </g>
   <g id="text_6">
    <g clip-path="url(#p8a6eea8066)">
     <!-- 5 -->
     <g transform="translate(134.653493 167.338681) scale(0.12 -0.12)">
      <defs>
       <path id="DejaVuSans-35" d="M 691 4666 
L 3169 4666 
L 3169 4134 
L 1269 4134 
L 1269 2991 
Q 1406 3038 1543 3061 
Q 1681 3084 1819 3084 
Q 2600 3084 3056 2656 
Q 3513 2228 3513 1497 
Q 3513 744 3044 326 
Q 2575 -91 1722 -91 
Q 1428 -91 1123 -41 
Q 819 9 494 109 
L 494 744 
Q 775 591 1075 516 
Q 1375 441 1709 441 
Q 2250 441 2565 725 
Q 2881 1009 2881 1497 
Q 2881 1984 2565 2268 
Q 2250 2553 1709 2553 
Q 1456 2553 1204 2497 
Q 953 2441 691 2322 
L 691 4666 
z
" transform="scale(0.015625)"/>
      </defs>
      <use xlink:href="#DejaVuSans-35"/>
     </g>
    </g>
   </g>
   <g id="text_7">
    <g clip-path="url(#p8a6eea8066)">
     <!-- 6 -->
     <g transform="translate(206.455662 143.480863) scale(0.12 -0.12)">
      <defs>
       <path id="DejaVuSans-36" d="M 2113 2584 
Q 1688 2584 1439 2293 
Q 1191 2003 1191 1497 
Q 1191 994 1439 701 
Q 1688 409 2113 409 
Q 2538 409 2786 701 
Q 3034 994 3034 1497 
Q 3034 2003 2786 2293 
Q 2538 2584 2113 2584 
z
M 3366 4563 
L 3366 3988 
Q 3128 4100 2886 4159 
Q 2644 4219 2406 4219 
Q 1781 4219 1451 3797 
Q 1122 3375 1075 2522 
Q 1259 2794 1537 2939 
Q 1816 3084 2150 3084 
Q 2853 3084 3261 2657 
Q 3669 2231 3669 1497 
Q 3669 778 3244 343 
Q 2819 -91 2113 -91 
Q 1303 -91 875 529 
Q 447 1150 447 2328 
Q 447 3434 972 4092 
Q 1497 4750 2381 4750 
Q 2619 4750 2861 4703 
Q 3103 4656 3366 4563 
z
" transform="scale(0.015625)"/>
      </defs>
      <use xlink:href="#DejaVuSans-36"/>
     </g>
    </g>
   </g>
   <g id="text_8">
    <g clip-path="url(#p8a6eea8066)">
     <!-- 7 -->
     <g transform="translate(157.730753 95.023406) scale(0.12 -0.12)">
      <defs>
       <path id="DejaVuSans-37" d="M 525 4666 
L 3525 4666 
L 3525 4397 
L 1831 0 
L 1172 0 
L 2766 4134 
L 525 4134 
L 525 4666 
z
" transform="scale(0.015625)"/>
      </defs>
      <use xlink:href="#DejaVuSans-37"/>
     </g>
    </g>
   </g>
   <g id="text_9">
    <g clip-path="url(#p8a6eea8066)">
     <!-- 8 -->
     <g transform="translate(205.088699 93.204407) scale(0.12 -0.12)">
      <defs>
       <path id="DejaVuSans-38" d="M 2034 2216 
Q 1584 2216 1326 1975 
Q 1069 1734 1069 1313 
Q 1069 891 1326 650 
Q 1584 409 2034 409 
Q 2484 409 2743 651 
Q 3003 894 3003 1313 
Q 3003 1734 2745 1975 
Q 2488 2216 2034 2216 
z
M 1403 2484 
Q 997 2584 770 2862 
Q 544 3141 544 3541 
Q 544 4100 942 4425 
Q 1341 4750 2034 4750 
Q 2731 4750 3128 4425 
Q 3525 4100 3525 3541 
Q 3525 3141 3298 2862 
Q 3072 2584 2669 2484 
Q 3125 2378 3379 2068 
Q 3634 1759 3634 1313 
Q 3634 634 3220 271 
Q 2806 -91 2034 -91 
Q 1263 -91 848 271 
Q 434 634 434 1313 
Q 434 1759 690 2068 
Q 947 2378 1403 2484 
z
M 1172 3481 
Q 1172 3119 1398 2916 
Q 1625 2713 2034 2713 
Q 2441 2713 2670 2916 
Q 2900 3119 2900 3481 
Q 2900 3844 2670 4047 
Q 2441 4250 2034 4250 
Q 1625 4250 1398 4047 
Q 1172 3844 1172 3481 
z
" transform="scale(0.015625)"/>
      </defs>
      <use xlink:href="#DejaVuSans-38"/>
     </g>
    </g>
   </g>
   <g id="text_10">
    <g clip-path="url(#p8a6eea8066)">
     <!-- 9 -->
     <g transform="translate(81.173091 219.682609) scale(0.12 -0.12)">
      <defs>
       <path id="DejaVuSans-39" d="M 703 97 
L 703 672 
Q 941 559 1184 500 
Q 1428 441 1663 441 
Q 2288 441 2617 861 
Q 2947 1281 2994 2138 
Q 2813 1869 2534 1725 
Q 2256 1581 1919 1581 
Q 1219 1581 811 2004 
Q 403 2428 403 3163 
Q 403 3881 828 4315 
Q 1253 4750 1959 4750 
Q 2769 4750 3195 4129 
Q 3622 3509 3622 2328 
Q 3622 1225 3098 567 
Q 2575 -91 1691 -91 
Q 1453 -91 1209 -44 
Q 966 3 703 97 
z
M 1959 2075 
Q 2384 2075 2632 2365 
Q 2881 2656 2881 3163 
Q 2881 3666 2632 3958 
Q 2384 4250 1959 4250 
Q 1534 4250 1286 3958 
Q 1038 3666 1038 3163 
Q 1038 2656 1286 2365 
Q 1534 2075 1959 2075 
z
" transform="scale(0.015625)"/>
      </defs>
      <use xlink:href="#DejaVuSans-39"/>
     </g>
    </g>
   </g>
  </g>
 </g>
 <defs>
  <clipPath id="p8a6eea8066">
   <rect x="7.2" y="7.2" width="357.12" height="266.112"/>
  </clipPath>
 </defs>
</svg>
