<?xml version="1.0" encoding="utf-8" standalone="no"?>
<!DOCTYPE svg PUBLIC "-//W3C//DTD SVG 1.1//EN"
  "http://www.w3.org/Graphics/SVG/1.1/DTD/svg11.dtd">
<svg xmlns:xlink="http://www.w3.org/1999/xlink" width="371.52pt" height="280.512pt" viewBox="0 0 371.52 280.512" xmlns="http://www.w3.org/2000/svg" version="1.1">
 <metadata>
  <rdf:RDF xmlns:dc="http://purl.org/dc/elements/1.1/" xmlns:cc="http://creativecommons.org/ns#" xmlns:rdf="http://www.w3.org/1999/02/22-rdf-syntax-ns#">
   <cc:Work>
    <dc:type rdf:resource="http://purl.org/dc/dcmitype/StillImage"/>
    <dc:date>2022-10-15T07:39:25.375057</dc:date>
    <dc:format>image/svg+xml</dc:format>
    <dc:creator>
     <cc:Agent>
      <dc:title>Matplotlib v3.6.1, https://matplotlib.org/</dc:title>
     </cc:Agent>
    </dc:creator>
   </cc:Work>
  </rdf:RDF>
 </metadata>
 <defs>
  <style type="text/css">*{stroke-linejoin: round; stroke-linecap: butt}</style>
 </defs>
 <g id="figure_1">
  <g id="patch_1">
   <path d="M 0 280.512 
L 371.52 280.512 
L 371.52 0 
L 0 0 
z
" style="fill: #ffffff"/>
  </g>
  <g id="axes_1">
   <g id="patch_2">
    <path d="M 7.2 273.312 
L 364.32 273.312 
L 364.32 7.2 
L 7.2 7.2 
z
" style="fill: #ffffff"/>
   </g>
   <g id="patch_3">
    <path d="M 162.724564 180.423185 
Q 104.768826 185.565858 47.926747 190.609711 
" clip-path="url(#p4674f35e17)" style="fill: none; stroke: #000000; stroke-linecap: round"/>
    <path d="M 56.248985 193.886958 
L 47.926747 190.609711 
L 55.541887 185.918268 
L 56.248985 193.886958 
z
" clip-path="url(#p4674f35e17)" style="stroke: #000000; stroke-linecap: round"/>
   </g>
   <g id="patch_4">
    <path d="M 178.272946 184.862358 
Q 218.267386 214.939112 257.368267 244.343889 
" clip-path="url(#p4674f35e17)" style="fill: none; stroke: #000000; stroke-linecap: round"/>
    <path d="M 253.37862 236.338721 
L 257.368267 244.343889 
L 248.570345 242.732506 
L 253.37862 236.338721 
z
" clip-path="url(#p4674f35e17)" style="stroke: #000000; stroke-linecap: round"/>
   </g>
   <g id="patch_5">
    <path d="M 175.516401 172.063037 
Q 194.148973 138.083007 212.243994 105.083303 
" clip-path="url(#p4674f35e17)" style="fill: none; stroke: #000000; stroke-linecap: round"/>
    <path d="M 204.890273 110.174745 
L 212.243994 105.083303 
L 211.904914 114.021145 
L 204.890273 110.174745 
z
" clip-path="url(#p4674f35e17)" style="stroke: #000000; stroke-linecap: round"/>
   </g>
   <g id="patch_6">
    <path d="M 177.003153 173.098685 
Q 181.857559 167.464483 185.982186 162.677289 
" clip-path="url(#p4674f35e17)" style="fill: none; stroke: #000000; stroke-linecap: round"/>
    <path d="M 177.729965 166.12705 
L 185.982186 162.677289 
L 183.790662 171.348922 
L 177.729965 166.12705 
z
" clip-path="url(#p4674f35e17)" style="stroke: #000000; stroke-linecap: round"/>
   </g>
   <g id="patch_7">
    <path d="M 179.884014 181.168116 
Q 250.553495 193.6792 320.122062 205.995382 
" clip-path="url(#p4674f35e17)" style="fill: none; stroke: #000000; stroke-linecap: round"/>
    <path d="M 312.941861 200.662023 
L 320.122062 205.995382 
L 311.547255 208.539527 
L 312.941861 200.662023 
z
" clip-path="url(#p4674f35e17)" style="stroke: #000000; stroke-linecap: round"/>
   </g>
   <g id="patch_8">
    <path d="M 166.172724 172.712927 
Q 126.900819 120.054488 88.297314 68.292285 
" clip-path="url(#p4674f35e17)" style="fill: none; stroke: #000000; stroke-linecap: round"/>
    <path d="M 89.873524 77.096578 
L 88.297314 68.292285 
L 96.286474 72.313892 
L 89.873524 77.096578 
z
" clip-path="url(#p4674f35e17)" style="stroke: #000000; stroke-linecap: round"/>
   </g>
   <g id="patch_9">
    <path d="M 112.754304 135.249974 
Q 138.603593 154.839596 163.56182 173.753935 
" clip-path="url(#p4674f35e17)" style="fill: none; stroke: #000000; stroke-linecap: round"/>
    <path d="M 159.601859 165.734041 
L 163.56182 173.753935 
L 154.769928 172.109967 
L 159.601859 165.734041 
z
" clip-path="url(#p4674f35e17)" style="stroke: #000000; stroke-linecap: round"/>
   </g>
   <g id="patch_10">
    <path d="M 113.991086 132.986854 
Q 129.272216 138.558669 143.502958 143.74749 
" clip-path="url(#p4674f35e17)" style="fill: none; stroke: #000000; stroke-linecap: round"/>
    <path d="M 137.357228 137.249029 
L 143.502958 143.74749 
L 134.616751 144.764998 
L 137.357228 137.249029 
z
" clip-path="url(#p4674f35e17)" style="stroke: #000000; stroke-linecap: round"/>
   </g>
   <g id="patch_11">
    <path d="M 114.305976 128.145778 
Q 138.907466 122.693909 162.417404 117.483935 
" clip-path="url(#p4674f35e17)" style="fill: none; stroke: #000000; stroke-linecap: round"/>
    <path d="M 153.741459 115.309545 
L 162.417404 117.483935 
L 155.472325 123.120057 
L 153.741459 115.309545 
z
" clip-path="url(#p4674f35e17)" style="stroke: #000000; stroke-linecap: round"/>
   </g>
   <g id="patch_12">
    <path d="M 114.166103 132.445596 
Q 149.111302 142.644106 182.983239 152.529391 
" clip-path="url(#p4674f35e17)" style="fill: none; stroke: #000000; stroke-linecap: round"/>
    <path d="M 176.424227 146.448326 
L 182.983239 152.529391 
L 174.182979 154.127962 
L 176.424227 146.448326 
z
" clip-path="url(#p4674f35e17)" style="stroke: #000000; stroke-linecap: round"/>
   </g>
   <g id="patch_13">
    <path d="M 103.091094 121.81157 
Q 94.150646 95.234387 85.566671 69.716886 
" clip-path="url(#p4674f35e17)" style="fill: none; stroke: #000000; stroke-linecap: round"/>
    <path d="M 84.326146 78.574713 
L 85.566671 69.716886 
L 91.908617 76.024003 
L 84.326146 78.574713 
z
" clip-path="url(#p4674f35e17)" style="stroke: #000000; stroke-linecap: round"/>
   </g>
   <g id="patch_14">
    <path d="M 203.276758 72.572809 
Q 190.177323 90.476817 177.738064 107.478513 
" clip-path="url(#p4674f35e17)" style="fill: none; stroke: #000000; stroke-linecap: round"/>
    <path d="M 185.690107 103.384004 
L 177.738064 107.478513 
L 179.233682 98.660172 
L 185.690107 103.384004 
z
" clip-path="url(#p4674f35e17)" style="stroke: #000000; stroke-linecap: round"/>
   </g>
   <g id="patch_15">
    <path d="M 216.319411 69.075359 
Q 270.86293 93.122613 324.383428 116.718837 
" clip-path="url(#p4674f35e17)" style="fill: none; stroke: #000000; stroke-linecap: round"/>
    <path d="M 318.676949 109.831451 
L 324.383428 116.718837 
L 315.449632 117.151589 
L 318.676949 109.831451 
z
" clip-path="url(#p4674f35e17)" style="stroke: #000000; stroke-linecap: round"/>
   </g>
   <g id="patch_16">
    <path d="M 215.702143 70.221331 
Q 246.912723 90.036644 277.179432 109.252702 
" clip-path="url(#p4674f35e17)" style="fill: none; stroke: #000000; stroke-linecap: round"/>
    <path d="M 272.569599 101.587883 
L 277.179432 109.252702 
L 268.281677 108.341677 
L 272.569599 101.587883 
z
" clip-path="url(#p4674f35e17)" style="stroke: #000000; stroke-linecap: round"/>
   </g>
   <g id="patch_17">
    <path d="M 199.740968 65.228245 
Q 145.421182 63.016117 92.218505 60.849483 
" clip-path="url(#p4674f35e17)" style="fill: none; stroke: #000000; stroke-linecap: round"/>
    <path d="M 100.049118 65.171694 
L 92.218505 60.849483 
L 100.374641 57.178319 
L 100.049118 65.171694 
z
" clip-path="url(#p4674f35e17)" style="stroke: #000000; stroke-linecap: round"/>
   </g>
   <g id="patch_18">
    <path d="M 297.900404 169.855615 
Q 264.586695 153.187525 232.27285 137.019705 
" clip-path="url(#p4674f35e17)" style="fill: none; stroke: #000000; stroke-linecap: round"/>
    <path d="M 237.637483 144.17657 
L 232.27285 137.019705 
L 241.217122 137.022118 
L 237.637483 144.17657 
z
" clip-path="url(#p4674f35e17)" style="stroke: #000000; stroke-linecap: round"/>
   </g>
   <g id="patch_19">
    <path d="M 298.901809 179.156402 
Q 290.325464 186.054327 282.620329 192.251541 
" clip-path="url(#p4674f35e17)" style="fill: none; stroke: #000000; stroke-linecap: round"/>
    <path d="M 291.36113 190.354598 
L 282.620329 192.251541 
L 286.347254 184.120734 
L 291.36113 190.354598 
z
" clip-path="url(#p4674f35e17)" style="stroke: #000000; stroke-linecap: round"/>
   </g>
   <g id="patch_20">
    <path d="M 301.597557 181.385383 
Q 285.415491 211.973016 269.756252 241.572392 
" clip-path="url(#p4674f35e17)" style="fill: none; stroke: #000000; stroke-linecap: round"/>
    <path d="M 277.032993 236.371523 
L 269.756252 241.572392 
L 269.961601 232.630478 
L 277.032993 236.371523 
z
" clip-path="url(#p4674f35e17)" style="stroke: #000000; stroke-linecap: round"/>
   </g>
   <g id="patch_21">
    <path d="M 309.652995 166.051711 
Q 319.489373 147.195752 328.80865 129.331058 
" clip-path="url(#p4674f35e17)" style="fill: none; stroke: #000000; stroke-linecap: round"/>
    <path d="M 321.562113 134.57393 
L 328.80865 129.331058 
L 328.655025 138.274011 
L 321.562113 134.57393 
z
" clip-path="url(#p4674f35e17)" style="stroke: #000000; stroke-linecap: round"/>
   </g>
   <g id="patch_22">
    <path d="M 302.849892 165.53478 
Q 295.539898 144.112059 288.590965 123.747467 
" clip-path="url(#p4674f35e17)" style="fill: none; stroke: #000000; stroke-linecap: round"/>
    <path d="M 287.388833 132.610586 
L 288.590965 123.747467 
L 294.960181 130.027043 
L 287.388833 132.610586 
z
" clip-path="url(#p4674f35e17)" style="stroke: #000000; stroke-linecap: round"/>
   </g>
   <g id="patch_23">
    <path d="M 321.182477 138.213813 
Q 276.677283 135.675257 233.288309 133.200369 
" clip-path="url(#p4674f35e17)" style="fill: none; stroke: #000000; stroke-linecap: round"/>
    <path d="M 241.047538 137.649454 
L 233.288309 133.200369 
L 241.503114 129.662436 
L 241.047538 137.649454 
z
" clip-path="url(#p4674f35e17)" style="stroke: #000000; stroke-linecap: round"/>
   </g>
   <g id="patch_24">
    <path d="M 323.968377 145.084357 
Q 302.414992 168.542708 281.618041 191.177767 
" clip-path="url(#p4674f35e17)" style="fill: none; stroke: #000000; stroke-linecap: round"/>
    <path d="M 289.976137 187.993081 
L 281.618041 191.177767 
L 284.085149 182.580479 
L 289.976137 187.993081 
z
" clip-path="url(#p4674f35e17)" style="stroke: #000000; stroke-linecap: round"/>
   </g>
   <g id="patch_25">
    <path d="M 331.477323 130.209352 
Q 331.579107 129.684974 331.467853 130.258144 
" clip-path="url(#p4674f35e17)" style="fill: none; stroke: #000000; stroke-linecap: round"/>
    <path d="M 326.016758 137.349376 
L 331.467853 130.258144 
L 333.870181 138.873759 
L 326.016758 137.349376 
z
" clip-path="url(#p4674f35e17)" style="stroke: #000000; stroke-linecap: round"/>
   </g>
   <g id="patch_26">
    <path d="M 217.090628 138.442841 
Q 197.438702 156.151065 178.617352 173.110862 
" clip-path="url(#p4674f35e17)" style="fill: none; stroke: #000000; stroke-linecap: round"/>
    <path d="M 187.238126 170.727115 
L 178.617352 173.110862 
L 181.882818 164.783994 
L 187.238126 170.727115 
z
" clip-path="url(#p4674f35e17)" style="stroke: #000000; stroke-linecap: round"/>
   </g>
   <g id="patch_27">
    <path d="M 228.865836 139.462351 
Q 249.26242 165.510329 268.969715 190.678034 
" clip-path="url(#p4674f35e17)" style="fill: none; stroke: #000000; stroke-linecap: round"/>
    <path d="M 267.18693 181.913236 
L 268.969715 190.678034 
L 260.888206 186.845383 
L 267.18693 181.913236 
z
" clip-path="url(#p4674f35e17)" style="stroke: #000000; stroke-linecap: round"/>
   </g>
   <g id="patch_28">
    <path d="M 230.596758 137.639252 
Q 276.638896 170.171449 321.767934 202.058472 
" clip-path="url(#p4674f35e17)" style="fill: none; stroke: #000000; stroke-linecap: round"/>
    <path d="M 317.542563 194.175183 
L 321.767934 202.058472 
L 312.92608 200.708795 
L 317.542563 194.175183 
z
" clip-path="url(#p4674f35e17)" style="stroke: #000000; stroke-linecap: round"/>
   </g>
   <g id="patch_29">
    <path d="M 216.920354 127.04935 
Q 163.094873 81.468624 110.122602 36.610417 
" clip-path="url(#p4674f35e17)" style="fill: none; stroke: #000000; stroke-linecap: round"/>
    <path d="M 113.642712 44.832876 
L 110.122602 36.610417 
L 118.812635 38.727805 
L 113.642712 44.832876 
z
" clip-path="url(#p4674f35e17)" style="stroke: #000000; stroke-linecap: round"/>
   </g>
   <g id="patch_30">
    <path d="M 40.960063 183.272844 
Q 60.319155 125.964665 79.320432 69.715715 
" clip-path="url(#p4674f35e17)" style="fill: none; stroke: #000000; stroke-linecap: round"/>
    <path d="M 72.970499 76.01479 
L 79.320432 69.715715 
L 80.549732 78.575107 
L 72.970499 76.01479 
z
" clip-path="url(#p4674f35e17)" style="stroke: #000000; stroke-linecap: round"/>
   </g>
   <g id="patch_31">
    <path d="M 266.476092 196.840192 
Q 223.174129 189.018427 180.972396 181.395399 
" clip-path="url(#p4674f35e17)" style="fill: none; stroke: #000000; stroke-linecap: round"/>
    <path d="M 188.133966 186.753748 
L 180.972396 181.395399 
L 189.556018 178.881152 
L 188.133966 186.753748 
z
" clip-path="url(#p4674f35e17)" style="stroke: #000000; stroke-linecap: round"/>
   </g>
   <g id="patch_32">
    <path d="M 280.200271 191.452203 
Q 304.165347 159.521815 327.459294 128.485621 
" clip-path="url(#p4674f35e17)" style="fill: none; stroke: #000000; stroke-linecap: round"/>
    <path d="M 319.457909 132.48285 
L 327.459294 128.485621 
L 325.856246 137.285066 
L 319.457909 132.48285 
z
" clip-path="url(#p4674f35e17)" style="stroke: #000000; stroke-linecap: round"/>
   </g>
   <g id="patch_33">
    <path d="M 144.551552 144.129829 
Q 129.270422 138.558015 115.03968 133.369193 
" clip-path="url(#p4674f35e17)" style="fill: none; stroke: #000000; stroke-linecap: round"/>
    <path d="M 121.185411 139.867655 
L 115.03968 133.369193 
L 123.925887 132.351686 
L 121.185411 139.867655 
z
" clip-path="url(#p4674f35e17)" style="stroke: #000000; stroke-linecap: round"/>
   </g>
   <g id="patch_34">
    <path d="M 144.615232 150.227152 
Q 95.441191 169.285185 47.309629 187.939192 
" clip-path="url(#p4674f35e17)" style="fill: none; stroke: #000000; stroke-linecap: round"/>
    <path d="M 56.214491 188.777903 
L 47.309629 187.939192 
L 53.323514 181.318529 
L 56.214491 188.777903 
z
" clip-path="url(#p4674f35e17)" style="stroke: #000000; stroke-linecap: round"/>
   </g>
   <g id="patch_35">
    <path d="M 160.674579 150.445043 
Q 213.844512 172.738285 265.983374 194.599217 
" clip-path="url(#p4674f35e17)" style="fill: none; stroke: #000000; stroke-linecap: round"/>
    <path d="M 260.152311 187.816983 
L 265.983374 194.599217 
L 257.058949 195.194727 
L 260.152311 187.816983 
z
" clip-path="url(#p4674f35e17)" style="stroke: #000000; stroke-linecap: round"/>
   </g>
   <g id="patch_36">
    <path d="M 158.708517 140.872763 
Q 192.951132 105.453926 226.416637 70.838892 
" clip-path="url(#p4674f35e17)" style="fill: none; stroke: #000000; stroke-linecap: round"/>
    <path d="M 217.980315 73.810168 
L 226.416637 70.838892 
L 223.731865 79.370715 
L 217.980315 73.810168 
z
" clip-path="url(#p4674f35e17)" style="stroke: #000000; stroke-linecap: round"/>
   </g>
   <g id="patch_37">
    <path d="M 159.494806 141.740495 
Q 184.816807 121.804616 209.260353 102.560341 
" clip-path="url(#p4674f35e17)" style="fill: none; stroke: #000000; stroke-linecap: round"/>
    <path d="M 200.500279 104.366194 
L 209.260353 102.560341 
L 205.448991 110.651912 
L 200.500279 104.366194 
z
" clip-path="url(#p4674f35e17)" style="stroke: #000000; stroke-linecap: round"/>
   </g>
   <g id="patch_38">
    <path d="M 178.710459 120.801933 
Q 223.483582 156.874272 267.386081 192.245175 
" clip-path="url(#p4674f35e17)" style="fill: none; stroke: #000000; stroke-linecap: round"/>
    <path d="M 263.66593 184.111266 
L 267.386081 192.245175 
L 258.646863 190.34095 
L 263.66593 184.111266 
z
" clip-path="url(#p4674f35e17)" style="stroke: #000000; stroke-linecap: round"/>
   </g>
   <g id="patch_39">
    <path d="M 175.909146 123.080512 
Q 182.165927 135.317712 187.913735 146.559449 
" clip-path="url(#p4674f35e17)" style="fill: none; stroke: #000000; stroke-linecap: round"/>
    <path d="M 187.833304 137.615539 
L 187.913735 146.559449 
L 180.710348 141.257448 
L 187.833304 137.615539 
z
" clip-path="url(#p4674f35e17)" style="stroke: #000000; stroke-linecap: round"/>
   </g>
   <g id="patch_40">
    <path d="M 178.026989 121.55648 
Q 195.180643 139.070452 211.551986 155.785681 
" clip-path="url(#p4674f35e17)" style="fill: none; stroke: #000000; stroke-linecap: round"/>
    <path d="M 208.811899 147.271463 
L 211.551986 155.785681 
L 203.096559 152.86922 
L 208.811899 147.271463 
z
" clip-path="url(#p4674f35e17)" style="stroke: #000000; stroke-linecap: round"/>
   </g>
   <g id="patch_41">
    <path d="M 166.49429 108.651317 
Q 137.312046 72.828065 108.835931 37.871637 
" clip-path="url(#p4674f35e17)" style="fill: none; stroke: #000000; stroke-linecap: round"/>
    <path d="M 110.787339 46.60044 
L 108.835931 37.871637 
L 116.989818 41.547793 
L 110.787339 46.60044 
z
" clip-path="url(#p4674f35e17)" style="stroke: #000000; stroke-linecap: round"/>
   </g>
   <g id="patch_42">
    <path d="M 240.055572 69.115004 
Q 281.518565 101.257314 322.097935 132.714635 
" clip-path="url(#p4674f35e17)" style="fill: none; stroke: #000000; stroke-linecap: round"/>
    <path d="M 318.225933 124.651906 
L 322.097935 132.714635 
L 313.32455 130.9746 
L 318.225933 124.651906 
z
" clip-path="url(#p4674f35e17)" style="stroke: #000000; stroke-linecap: round"/>
   </g>
   <g id="patch_43">
    <path d="M 229.680764 71.717055 
Q 212.789122 109.538991 196.353401 146.340076 
" clip-path="url(#p4674f35e17)" style="fill: none; stroke: #000000; stroke-linecap: round"/>
    <path d="M 203.268016 140.666621 
L 196.353401 146.340076 
L 195.963406 137.404311 
L 203.268016 140.666621 
z
" clip-path="url(#p4674f35e17)" style="stroke: #000000; stroke-linecap: round"/>
   </g>
   <g id="patch_44">
    <path d="M 224.825658 61.656799 
Q 167.935992 47.050915 112.129239 32.723059 
" clip-path="url(#p4674f35e17)" style="fill: none; stroke: #000000; stroke-linecap: round"/>
    <path d="M 118.883232 38.586811 
L 112.129239 32.723059 
L 120.872636 30.838116 
L 118.883232 38.586811 
z
" clip-path="url(#p4674f35e17)" style="stroke: #000000; stroke-linecap: round"/>
   </g>
   <g id="patch_45">
    <path d="M 258.260559 245.014914 
Q 218.266119 214.938159 179.165238 185.533382 
" clip-path="url(#p4674f35e17)" style="fill: none; stroke: #000000; stroke-linecap: round"/>
    <path d="M 183.154885 193.53855 
L 179.165238 185.533382 
L 187.963161 187.144765 
L 183.154885 193.53855 
z
" clip-path="url(#p4674f35e17)" style="stroke: #000000; stroke-linecap: round"/>
   </g>
   <g id="patch_46">
    <path d="M 328.130641 127.591137 
Q 304.165565 159.521525 280.871618 190.557719 
" clip-path="url(#p4674f35e17)" style="fill: none; stroke: #000000; stroke-linecap: round"/>
    <path d="M 288.873003 186.56049 
L 280.871618 190.557719 
L 282.474666 181.758273 
L 288.873003 186.56049 
z
" clip-path="url(#p4674f35e17)" style="stroke: #000000; stroke-linecap: round"/>
   </g>
   <g id="patch_47">
    <path d="M 329.297643 128.329639 
Q 299.255928 185.441397 269.734701 241.563664 
" clip-path="url(#p4674f35e17)" style="fill: none; stroke: #000000; stroke-linecap: round"/>
    <path d="M 276.999121 236.345599 
L 269.734701 241.563664 
L 269.918902 232.621289 
L 276.999121 236.345599 
z
" clip-path="url(#p4674f35e17)" style="stroke: #000000; stroke-linecap: round"/>
   </g>
   <g id="patch_48">
    <path d="M 208.655634 99.010637 
Q 161.399834 113.264382 115.214434 127.195263 
" clip-path="url(#p4674f35e17)" style="fill: none; stroke: #000000; stroke-linecap: round"/>
    <path d="M 124.028716 128.714615 
L 115.214434 127.195263 
L 121.718485 121.055449 
L 124.028716 128.714615 
z
" clip-path="url(#p4674f35e17)" style="stroke: #000000; stroke-linecap: round"/>
   </g>
   <g id="patch_49">
    <path d="M 208.958778 99.858546 
Q 194.456455 105.938678 180.985214 111.586526 
" clip-path="url(#p4674f35e17)" style="fill: none; stroke: #000000; stroke-linecap: round"/>
    <path d="M 189.909623 112.182269 
L 180.985214 111.586526 
L 186.816454 104.804444 
L 189.909623 112.182269 
z
" clip-path="url(#p4674f35e17)" style="stroke: #000000; stroke-linecap: round"/>
   </g>
   <g id="patch_50">
    <path d="M 225.42302 98.269791 
Q 275.13681 108.586687 323.75589 118.676402 
" clip-path="url(#p4674f35e17)" style="fill: none; stroke: #000000; stroke-linecap: round"/>
    <path d="M 316.735572 113.134278 
L 323.75589 118.676402 
L 315.110001 120.967382 
L 316.735572 113.134278 
z
" clip-path="url(#p4674f35e17)" style="stroke: #000000; stroke-linecap: round"/>
   </g>
   <g id="patch_51">
    <path d="M 193.889723 146.741882 
Q 200.379686 110.422644 206.67298 75.204005 
" clip-path="url(#p4674f35e17)" style="fill: none; stroke: #000000; stroke-linecap: round"/>
    <path d="M 201.328106 82.375638 
L 206.67298 75.204005 
L 209.203362 83.782885 
L 201.328106 82.375638 
z
" clip-path="url(#p4674f35e17)" style="stroke: #000000; stroke-linecap: round"/>
   </g>
   <g id="patch_52">
    <path d="M 183.939397 157.246656 
Q 115.278985 173.370498 47.706997 189.23874 
" clip-path="url(#p4674f35e17)" style="fill: none; stroke: #000000; stroke-linecap: round"/>
    <path d="M 56.409593 191.303883 
L 47.706997 189.23874 
L 54.58067 183.515749 
L 56.409593 191.303883 
z
" clip-path="url(#p4674f35e17)" style="stroke: #000000; stroke-linecap: round"/>
   </g>
   <g id="patch_53">
    <path d="M 200.045108 159.273999 
Q 233.683381 176.823848 266.330415 193.856546 
" clip-path="url(#p4674f35e17)" style="fill: none; stroke: #000000; stroke-linecap: round"/>
    <path d="M 261.087907 186.609747 
L 266.330415 193.856546 
L 257.387471 193.702473 
L 261.087907 186.609747 
z
" clip-path="url(#p4674f35e17)" style="stroke: #000000; stroke-linecap: round"/>
   </g>
   <g id="patch_54">
    <path d="M 200.776394 153.203183 
Q 262.848312 137.965518 323.834434 122.994399 
" clip-path="url(#p4674f35e17)" style="fill: none; stroke: #000000; stroke-linecap: round"/>
    <path d="M 315.111486 121.016982 
L 323.834434 122.994399 
L 317.018731 128.786307 
L 315.111486 121.016982 
z
" clip-path="url(#p4674f35e17)" style="stroke: #000000; stroke-linecap: round"/>
   </g>
   <g id="patch_55">
    <path d="M 278.123515 109.852092 
Q 246.912935 90.036779 216.646226 70.820721 
" clip-path="url(#p4674f35e17)" style="fill: none; stroke: #000000; stroke-linecap: round"/>
    <path d="M 221.256058 78.485539 
L 216.646226 70.820721 
L 225.54398 71.731746 
L 221.256058 78.485539 
z
" clip-path="url(#p4674f35e17)" style="stroke: #000000; stroke-linecap: round"/>
   </g>
   <g id="patch_56">
    <path d="M 288.229957 122.689493 
Q 295.539951 144.112214 302.488884 164.476807 
" clip-path="url(#p4674f35e17)" style="fill: none; stroke: #000000; stroke-linecap: round"/>
    <path d="M 303.691015 155.613687 
L 302.488884 164.476807 
L 296.119667 158.19723 
L 303.691015 155.613687 
z
" clip-path="url(#p4674f35e17)" style="stroke: #000000; stroke-linecap: round"/>
   </g>
   <g id="patch_57">
    <path d="M 293.033606 118.638388 
Q 307.62983 126.599544 321.244526 134.025349 
" clip-path="url(#p4674f35e17)" style="fill: none; stroke: #000000; stroke-linecap: round"/>
    <path d="M 316.136607 126.683063 
L 321.244526 134.025349 
L 312.305946 133.706312 
L 316.136607 126.683063 
z
" clip-path="url(#p4674f35e17)" style="stroke: #000000; stroke-linecap: round"/>
   </g>
   <g id="patch_58">
    <path d="M 284.364274 123.086878 
Q 280.217116 156.434328 276.207936 188.672291 
" clip-path="url(#p4674f35e17)" style="fill: none; stroke: #000000; stroke-linecap: round"/>
    <path d="M 281.16465 181.227092 
L 276.207936 188.672291 
L 273.225805 180.239801 
L 281.16465 181.227092 
z
" clip-path="url(#p4674f35e17)" style="stroke: #000000; stroke-linecap: round"/>
   </g>
   <g id="patch_59">
    <path d="M 277.060133 112.294426 
Q 251.190832 105.502093 226.402911 98.993692 
" clip-path="url(#p4674f35e17)" style="fill: none; stroke: #000000; stroke-linecap: round"/>
    <path d="M 233.124816 104.894199 
L 226.402911 98.993692 
L 235.15646 97.156472 
L 233.124816 104.894199 
z
" clip-path="url(#p4674f35e17)" style="stroke: #000000; stroke-linecap: round"/>
   </g>
   <g id="patch_60">
    <path d="M 210.241446 165.696244 
Q 194.871043 171.214249 180.552918 176.354483 
" clip-path="url(#p4674f35e17)" style="fill: none; stroke: #000000; stroke-linecap: round"/>
    <path d="M 189.43396 177.416127 
L 180.552918 176.354483 
L 186.730858 169.886636 
L 189.43396 177.416127 
z
" clip-path="url(#p4674f35e17)" style="stroke: #000000; stroke-linecap: round"/>
   </g>
   <g id="patch_61">
    <path d="M 226.857017 160.942184 
Q 274.111189 150.738253 320.272516 140.770307 
" clip-path="url(#p4674f35e17)" style="fill: none; stroke: #000000; stroke-linecap: round"/>
    <path d="M 311.608463 138.549003 
L 320.272516 140.770307 
L 313.297041 146.368767 
L 311.608463 138.549003 
z
" clip-path="url(#p4674f35e17)" style="stroke: #000000; stroke-linecap: round"/>
   </g>
   <g id="patch_62">
    <path d="M 209.83834 164.132539 
Q 128.289808 177.122061 47.84539 189.935712 
" clip-path="url(#p4674f35e17)" style="fill: none; stroke: #000000; stroke-linecap: round"/>
    <path d="M 56.375005 192.627492 
L 47.84539 189.935712 
L 55.116583 184.727089 
L 56.375005 192.627492 
z
" clip-path="url(#p4674f35e17)" style="stroke: #000000; stroke-linecap: round"/>
   </g>
   <g id="patch_63">
    <path d="M 212.33137 156.581437 
Q 195.177716 139.067464 178.806373 122.352235 
" clip-path="url(#p4674f35e17)" style="fill: none; stroke: #000000; stroke-linecap: round"/>
    <path d="M 181.54646 130.866454 
L 178.806373 122.352235 
L 187.2618 125.268696 
L 181.54646 130.866454 
z
" clip-path="url(#p4674f35e17)" style="stroke: #000000; stroke-linecap: round"/>
   </g>
   <g id="patch_64">
    <path d="M 226.526754 159.790072 
Q 275.862419 141.716282 324.14828 124.027081 
" clip-path="url(#p4674f35e17)" style="fill: none; stroke: #000000; stroke-linecap: round"/>
    <path d="M 315.260536 123.023079 
L 324.14828 124.027081 
L 318.012432 130.534874 
L 315.260536 123.023079 
z
" clip-path="url(#p4674f35e17)" style="stroke: #000000; stroke-linecap: round"/>
   </g>
   <g id="patch_65">
    <path d="M 225.420294 157.709181 
Q 251.912129 138.631902 277.496693 120.207967 
" clip-path="url(#p4674f35e17)" style="fill: none; stroke: #000000; stroke-linecap: round"/>
    <path d="M 268.667311 121.63696 
L 277.496693 120.207967 
L 273.342259 128.128868 
L 268.667311 121.63696 
z
" clip-path="url(#p4674f35e17)" style="stroke: #000000; stroke-linecap: round"/>
   </g>
   <g id="patch_66">
    <path d="M 324.740036 200.636641 
Q 317.700106 190.716329 311.307216 181.707793 
" clip-path="url(#p4674f35e17)" style="fill: none; stroke: #000000; stroke-linecap: round"/>
    <path d="M 312.674991 190.546865 
L 311.307216 181.707793 
L 319.199138 185.917017 
L 312.674991 190.546865 
z
" clip-path="url(#p4674f35e17)" style="stroke: #000000; stroke-linecap: round"/>
   </g>
   <g id="patch_67">
    <path d="M 322.520849 212.462511 
Q 297.468139 228.959361 273.3492 244.841335 
" clip-path="url(#p4674f35e17)" style="fill: none; stroke: #000000; stroke-linecap: round"/>
    <path d="M 282.230567 243.78241 
L 273.3492 244.841335 
L 277.83088 237.100886 
L 282.230567 243.78241 
z
" clip-path="url(#p4674f35e17)" style="stroke: #000000; stroke-linecap: round"/>
   </g>
   <g id="patch_68">
    <path d="M 321.722278 204.460307 
Q 274.073251 185.235397 227.461047 166.428814 
" clip-path="url(#p4674f35e17)" style="fill: none; stroke: #000000; stroke-linecap: round"/>
    <path d="M 233.383303 173.131566 
L 227.461047 166.428814 
L 236.376602 165.71266 
L 233.383303 173.131566 
z
" clip-path="url(#p4674f35e17)" style="stroke: #000000; stroke-linecap: round"/>
   </g>
   <g id="patch_69">
    <path d="M 110.156672 34.63509 
Q 159.804648 63.402142 208.485246 91.608676 
" clip-path="url(#p4674f35e17)" style="fill: none; stroke: #000000; stroke-linecap: round"/>
    <path d="M 203.568627 84.136938 
L 208.485246 91.608676 
L 199.557885 91.058928 
L 203.568627 84.136938 
z
" clip-path="url(#p4674f35e17)" style="stroke: #000000; stroke-linecap: round"/>
   </g>
   <g id="patch_70">
    <path d="M 91.104183 60.644442 
Q 157.827882 62.130738 223.433824 63.592136 
" clip-path="url(#p4674f35e17)" style="fill: none; stroke: #000000; stroke-linecap: round"/>
    <path d="M 215.524888 59.41497 
L 223.433824 63.592136 
L 215.346729 67.412985 
L 215.524888 59.41497 
z
" clip-path="url(#p4674f35e17)" style="stroke: #000000; stroke-linecap: round"/>
   </g>
   <g id="matplotlib.axis_1">
    <g id="xtick_1"/>
    <g id="xtick_2"/>
    <g id="xtick_3"/>
    <g id="xtick_4"/>
    <g id="xtick_5"/>
    <g id="xtick_6"/>
    <g id="xtick_7"/>
    <g id="xtick_8"/>
   </g>
   <g id="matplotlib.axis_2">
    <g id="ytick_1"/>
    <g id="ytick_2"/>
    <g id="ytick_3"/>
    <g id="ytick_4"/>
    <g id="ytick_5"/>
    <g id="ytick_6"/>
    <g id="ytick_7"/>
   </g>
   <g id="PathCollection_1">
    <defs>
     <path id="mf412f7aaeb" d="M 0 8.660254 
C 2.296726 8.660254 4.499694 7.747755 6.123724 6.123724 
C 7.747755 4.499694 8.660254 2.296726 8.660254 0 
C 8.660254 -2.296726 7.747755 -4.499694 6.123724 -6.123724 
C 4.499694 -7.747755 2.296726 -8.660254 0 -8.660254 
C -2.296726 -8.660254 -4.499694 -7.747755 -6.123724 -6.123724 
C -7.747755 -4.499694 -8.660254 -2.296726 -8.660254 0 
C -8.660254 2.296726 -7.747755 4.499694 -6.123724 6.123724 
C -4.499694 7.747755 -2.296726 8.660254 0 8.660254 
z
" style="stroke: #adade0"/>
    </defs>
    <g clip-path="url(#p4674f35e17)">
     <use xlink:href="#mf412f7aaeb" x="171.351987" y="179.657635" style="fill: #adade0; stroke: #adade0"/>
     <use xlink:href="#mf412f7aaeb" x="105.85211" y="130.019216" style="fill: #adade0; stroke: #adade0"/>
     <use xlink:href="#mf412f7aaeb" x="208.392612" y="65.580576" style="fill: #adade0; stroke: #adade0"/>
     <use xlink:href="#mf412f7aaeb" x="305.646803" y="173.731427" style="fill: #adade0; stroke: #adade0"/>
     <use xlink:href="#mf412f7aaeb" x="329.827904" y="138.706944" style="fill: #adade0; stroke: #adade0"/>
     <use xlink:href="#mf412f7aaeb" x="223.526455" y="132.643558" style="fill: #adade0; stroke: #adade0"/>
     <use xlink:href="#mf412f7aaeb" x="38.189752" y="191.473718" style="fill: #adade0; stroke: #adade0"/>
     <use xlink:href="#mf412f7aaeb" x="275.000664" y="198.380012" style="fill: #adade0; stroke: #adade0"/>
     <use xlink:href="#mf412f7aaeb" x="152.690528" y="147.097467" style="fill: #adade0; stroke: #adade0"/>
     <use xlink:href="#mf412f7aaeb" x="171.965774" y="115.367947" style="fill: #adade0; stroke: #adade0"/>
     <use xlink:href="#mf412f7aaeb" x="233.212153" y="63.809952" style="fill: #adade0; stroke: #adade0"/>
     <use xlink:href="#mf412f7aaeb" x="265.181518" y="250.219636" style="fill: #adade0; stroke: #adade0"/>
     <use xlink:href="#mf412f7aaeb" x="333.330248" y="120.663328" style="fill: #adade0; stroke: #adade0"/>
     <use xlink:href="#mf412f7aaeb" x="216.944874" y="96.510357" style="fill: #adade0; stroke: #adade0"/>
     <use xlink:href="#mf412f7aaeb" x="192.366217" y="155.267747" style="fill: #adade0; stroke: #adade0"/>
     <use xlink:href="#mf412f7aaeb" x="285.433046" y="114.492847" style="fill: #adade0; stroke: #adade0"/>
     <use xlink:href="#mf412f7aaeb" x="218.392585" y="162.76997" style="fill: #adade0; stroke: #adade0"/>
     <use xlink:href="#mf412f7aaeb" x="329.752801" y="207.700375" style="fill: #adade0; stroke: #adade0"/>
     <use xlink:href="#mf412f7aaeb" x="102.661723" y="30.292364" style="fill: #adade0; stroke: #adade0"/>
     <use xlink:href="#mf412f7aaeb" x="82.449891" y="60.451664" style="fill: #adade0; stroke: #adade0"/>
    </g>
   </g>
   <g id="patch_71">
    <path d="M 7.2 273.312 
L 7.2 7.2 
" style="fill: none; stroke: #000000; stroke-width: 0.8; stroke-linejoin: miter; stroke-linecap: square"/>
   </g>
   <g id="patch_72">
    <path d="M 364.32 273.312 
L 364.32 7.2 
" style="fill: none; stroke: #000000; stroke-width: 0.8; stroke-linejoin: miter; stroke-linecap: square"/>
   </g>
   <g id="patch_73">
    <path d="M 7.2 273.312 
L 364.32 273.312 
" style="fill: none; stroke: #000000; stroke-width: 0.8; stroke-linejoin: miter; stroke-linecap: square"/>
   </g>
   <g id="patch_74">
    <path d="M 7.2 7.2 
L 364.32 7.2 
" style="fill: none; stroke: #000000; stroke-width: 0.8; stroke-linejoin: miter; stroke-linecap: square"/>
   </g>
   <g id="text_1">
    <g clip-path="url(#p4674f35e17)">
     <!-- 0 -->
     <g transform="translate(167.534487 182.968885) scale(0.12 -0.12)">
      <defs>
       <path id="DejaVuSans-30" d="M 2034 4250 
Q 1547 4250 1301 3770 
Q 1056 3291 1056 2328 
Q 1056 1369 1301 889 
Q 1547 409 2034 409 
Q 2525 409 2770 889 
Q 3016 1369 3016 2328 
Q 3016 3291 2770 3770 
Q 2525 4250 2034 4250 
z
M 2034 4750 
Q 2819 4750 3233 4129 
Q 3647 3509 3647 2328 
Q 3647 1150 3233 529 
Q 2819 -91 2034 -91 
Q 1250 -91 836 529 
Q 422 1150 422 2328 
Q 422 3509 836 4129 
Q 1250 4750 2034 4750 
z
" transform="scale(0.015625)"/>
      </defs>
      <use xlink:href="#DejaVuSans-30"/>
     </g>
    </g>
   </g>
   <g id="text_2">
    <g clip-path="url(#p4674f35e17)">
     <!-- 1 -->
     <g transform="translate(102.03461 133.330466) scale(0.12 -0.12)">
      <defs>
       <path id="DejaVuSans-31" d="M 794 531 
L 1825 531 
L 1825 4091 
L 703 3866 
L 703 4441 
L 1819 4666 
L 2450 4666 
L 2450 531 
L 3481 531 
L 3481 0 
L 794 0 
L 794 531 
z
" transform="scale(0.015625)"/>
      </defs>
      <use xlink:href="#DejaVuSans-31"/>
     </g>
    </g>
   </g>
   <g id="text_3">
    <g clip-path="url(#p4674f35e17)">
     <!-- 2 -->
     <g transform="translate(204.575112 68.891826) scale(0.12 -0.12)">
      <defs>
       <path id="DejaVuSans-32" d="M 1228 531 
L 3431 531 
L 3431 0 
L 469 0 
L 469 531 
Q 828 903 1448 1529 
Q 2069 2156 2228 2338 
Q 2531 2678 2651 2914 
Q 2772 3150 2772 3378 
Q 2772 3750 2511 3984 
Q 2250 4219 1831 4219 
Q 1534 4219 1204 4116 
Q 875 4013 500 3803 
L 500 4441 
Q 881 4594 1212 4672 
Q 1544 4750 1819 4750 
Q 2544 4750 2975 4387 
Q 3406 4025 3406 3419 
Q 3406 3131 3298 2873 
Q 3191 2616 2906 2266 
Q 2828 2175 2409 1742 
Q 1991 1309 1228 531 
z
" transform="scale(0.015625)"/>
      </defs>
      <use xlink:href="#DejaVuSans-32"/>
     </g>
    </g>
   </g>
   <g id="text_4">
    <g clip-path="url(#p4674f35e17)">
     <!-- 3 -->
     <g transform="translate(301.829303 177.042677) scale(0.12 -0.12)">
      <defs>
       <path id="DejaVuSans-33" d="M 2597 2516 
Q 3050 2419 3304 2112 
Q 3559 1806 3559 1356 
Q 3559 666 3084 287 
Q 2609 -91 1734 -91 
Q 1441 -91 1130 -33 
Q 819 25 488 141 
L 488 750 
Q 750 597 1062 519 
Q 1375 441 1716 441 
Q 2309 441 2620 675 
Q 2931 909 2931 1356 
Q 2931 1769 2642 2001 
Q 2353 2234 1838 2234 
L 1294 2234 
L 1294 2753 
L 1863 2753 
Q 2328 2753 2575 2939 
Q 2822 3125 2822 3475 
Q 2822 3834 2567 4026 
Q 2313 4219 1838 4219 
Q 1578 4219 1281 4162 
Q 984 4106 628 3988 
L 628 4550 
Q 988 4650 1302 4700 
Q 1616 4750 1894 4750 
Q 2613 4750 3031 4423 
Q 3450 4097 3450 3541 
Q 3450 3153 3228 2886 
Q 3006 2619 2597 2516 
z
" transform="scale(0.015625)"/>
      </defs>
      <use xlink:href="#DejaVuSans-33"/>
     </g>
    </g>
   </g>
   <g id="text_5">
    <g clip-path="url(#p4674f35e17)">
     <!-- 4 -->
     <g transform="translate(326.010404 142.018194) scale(0.12 -0.12)">
      <defs>
       <path id="DejaVuSans-34" d="M 2419 4116 
L 825 1625 
L 2419 1625 
L 2419 4116 
z
M 2253 4666 
L 3047 4666 
L 3047 1625 
L 3713 1625 
L 3713 1100 
L 3047 1100 
L 3047 0 
L 2419 0 
L 2419 1100 
L 313 1100 
L 313 1709 
L 2253 4666 
z
" transform="scale(0.015625)"/>
      </defs>
      <use xlink:href="#DejaVuSans-34"/>
     </g>
    </g>
   </g>
   <g id="text_6">
    <g clip-path="url(#p4674f35e17)">
     <!-- 5 -->
     <g transform="translate(219.708955 135.954808) scale(0.12 -0.12)">
      <defs>
       <path id="DejaVuSans-35" d="M 691 4666 
L 3169 4666 
L 3169 4134 
L 1269 4134 
L 1269 2991 
Q 1406 3038 1543 3061 
Q 1681 3084 1819 3084 
Q 2600 3084 3056 2656 
Q 3513 2228 3513 1497 
Q 3513 744 3044 326 
Q 2575 -91 1722 -91 
Q 1428 -91 1123 -41 
Q 819 9 494 109 
L 494 744 
Q 775 591 1075 516 
Q 1375 441 1709 441 
Q 2250 441 2565 725 
Q 2881 1009 2881 1497 
Q 2881 1984 2565 2268 
Q 2250 2553 1709 2553 
Q 1456 2553 1204 2497 
Q 953 2441 691 2322 
L 691 4666 
z
" transform="scale(0.015625)"/>
      </defs>
      <use xlink:href="#DejaVuSans-35"/>
     </g>
    </g>
   </g>
   <g id="text_7">
    <g clip-path="url(#p4674f35e17)">
     <!-- 6 -->
     <g transform="translate(34.372252 194.784968) scale(0.12 -0.12)">
      <defs>
       <path id="DejaVuSans-36" d="M 2113 2584 
Q 1688 2584 1439 2293 
Q 1191 2003 1191 1497 
Q 1191 994 1439 701 
Q 1688 409 2113 409 
Q 2538 409 2786 701 
Q 3034 994 3034 1497 
Q 3034 2003 2786 2293 
Q 2538 2584 2113 2584 
z
M 3366 4563 
L 3366 3988 
Q 3128 4100 2886 4159 
Q 2644 4219 2406 4219 
Q 1781 4219 1451 3797 
Q 1122 3375 1075 2522 
Q 1259 2794 1537 2939 
Q 1816 3084 2150 3084 
Q 2853 3084 3261 2657 
Q 3669 2231 3669 1497 
Q 3669 778 3244 343 
Q 2819 -91 2113 -91 
Q 1303 -91 875 529 
Q 447 1150 447 2328 
Q 447 3434 972 4092 
Q 1497 4750 2381 4750 
Q 2619 4750 2861 4703 
Q 3103 4656 3366 4563 
z
" transform="scale(0.015625)"/>
      </defs>
      <use xlink:href="#DejaVuSans-36"/>
     </g>
    </g>
   </g>
   <g id="text_8">
    <g clip-path="url(#p4674f35e17)">
     <!-- 7 -->
     <g transform="translate(271.183164 201.691262) scale(0.12 -0.12)">
      <defs>
       <path id="DejaVuSans-37" d="M 525 4666 
L 3525 4666 
L 3525 4397 
L 1831 0 
L 1172 0 
L 2766 4134 
L 525 4134 
L 525 4666 
z
" transform="scale(0.015625)"/>
      </defs>
      <use xlink:href="#DejaVuSans-37"/>
     </g>
    </g>
   </g>
   <g id="text_9">
    <g clip-path="url(#p4674f35e17)">
     <!-- 8 -->
     <g transform="translate(148.873028 150.408717) scale(0.12 -0.12)">
      <defs>
       <path id="DejaVuSans-38" d="M 2034 2216 
Q 1584 2216 1326 1975 
Q 1069 1734 1069 1313 
Q 1069 891 1326 650 
Q 1584 409 2034 409 
Q 2484 409 2743 651 
Q 3003 894 3003 1313 
Q 3003 1734 2745 1975 
Q 2488 2216 2034 2216 
z
M 1403 2484 
Q 997 2584 770 2862 
Q 544 3141 544 3541 
Q 544 4100 942 4425 
Q 1341 4750 2034 4750 
Q 2731 4750 3128 4425 
Q 3525 4100 3525 3541 
Q 3525 3141 3298 2862 
Q 3072 2584 2669 2484 
Q 3125 2378 3379 2068 
Q 3634 1759 3634 1313 
Q 3634 634 3220 271 
Q 2806 -91 2034 -91 
Q 1263 -91 848 271 
Q 434 634 434 1313 
Q 434 1759 690 2068 
Q 947 2378 1403 2484 
z
M 1172 3481 
Q 1172 3119 1398 2916 
Q 1625 2713 2034 2713 
Q 2441 2713 2670 2916 
Q 2900 3119 2900 3481 
Q 2900 3844 2670 4047 
Q 2441 4250 2034 4250 
Q 1625 4250 1398 4047 
Q 1172 3844 1172 3481 
z
" transform="scale(0.015625)"/>
      </defs>
      <use xlink:href="#DejaVuSans-38"/>
     </g>
    </g>
   </g>
   <g id="text_10">
    <g clip-path="url(#p4674f35e17)">
     <!-- 9 -->
     <g transform="translate(168.148274 118.679197) scale(0.12 -0.12)">
      <defs>
       <path id="DejaVuSans-39" d="M 703 97 
L 703 672 
Q 941 559 1184 500 
Q 1428 441 1663 441 
Q 2288 441 2617 861 
Q 2947 1281 2994 2138 
Q 2813 1869 2534 1725 
Q 2256 1581 1919 1581 
Q 1219 1581 811 2004 
Q 403 2428 403 3163 
Q 403 3881 828 4315 
Q 1253 4750 1959 4750 
Q 2769 4750 3195 4129 
Q 3622 3509 3622 2328 
Q 3622 1225 3098 567 
Q 2575 -91 1691 -91 
Q 1453 -91 1209 -44 
Q 966 3 703 97 
z
M 1959 2075 
Q 2384 2075 2632 2365 
Q 2881 2656 2881 3163 
Q 2881 3666 2632 3958 
Q 2384 4250 1959 4250 
Q 1534 4250 1286 3958 
Q 1038 3666 1038 3163 
Q 1038 2656 1286 2365 
Q 1534 2075 1959 2075 
z
" transform="scale(0.015625)"/>
      </defs>
      <use xlink:href="#DejaVuSans-39"/>
     </g>
    </g>
   </g>
   <g id="text_11">
    <g clip-path="url(#p4674f35e17)">
     <!-- 10 -->
     <g transform="translate(225.577153 67.121202) scale(0.12 -0.12)">
      <use xlink:href="#DejaVuSans-31"/>
      <use xlink:href="#DejaVuSans-30" x="63.623047"/>
     </g>
    </g>
   </g>
   <g id="text_12">
    <g clip-path="url(#p4674f35e17)">
     <!-- 11 -->
     <g transform="translate(257.546518 253.530886) scale(0.12 -0.12)">
      <use xlink:href="#DejaVuSans-31"/>
      <use xlink:href="#DejaVuSans-31" x="63.623047"/>
     </g>
    </g>
   </g>
   <g id="text_13">
    <g clip-path="url(#p4674f35e17)">
     <!-- 12 -->
     <g transform="translate(325.695248 123.974578) scale(0.12 -0.12)">
      <use xlink:href="#DejaVuSans-31"/>
      <use xlink:href="#DejaVuSans-32" x="63.623047"/>
     </g>
    </g>
   </g>
   <g id="text_14">
    <g clip-path="url(#p4674f35e17)">
     <!-- 13 -->
     <g transform="translate(209.309874 99.821607) scale(0.12 -0.12)">
      <use xlink:href="#DejaVuSans-31"/>
      <use xlink:href="#DejaVuSans-33" x="63.623047"/>
     </g>
    </g>
   </g>
   <g id="text_15">
    <g clip-path="url(#p4674f35e17)">
     <!-- 14 -->
     <g transform="translate(184.731217 158.578997) scale(0.12 -0.12)">
      <use xlink:href="#DejaVuSans-31"/>
      <use xlink:href="#DejaVuSans-34" x="63.623047"/>
     </g>
    </g>
   </g>
   <g id="text_16">
    <g clip-path="url(#p4674f35e17)">
     <!-- 15 -->
     <g transform="translate(277.798046 117.804097) scale(0.12 -0.12)">
      <use xlink:href="#DejaVuSans-31"/>
      <use xlink:href="#DejaVuSans-35" x="63.623047"/>
     </g>
    </g>
   </g>
   <g id="text_17">
    <g clip-path="url(#p4674f35e17)">
     <!-- 16 -->
     <g transform="translate(210.757585 166.08122) scale(0.12 -0.12)">
      <use xlink:href="#DejaVuSans-31"/>
      <use xlink:href="#DejaVuSans-36" x="63.623047"/>
     </g>
    </g>
   </g>
   <g id="text_18">
    <g clip-path="url(#p4674f35e17)">
     <!-- 17 -->
     <g transform="translate(322.117801 211.011625) scale(0.12 -0.12)">
      <use xlink:href="#DejaVuSans-31"/>
      <use xlink:href="#DejaVuSans-37" x="63.623047"/>
     </g>
    </g>
   </g>
   <g id="text_19">
    <g clip-path="url(#p4674f35e17)">
     <!-- 18 -->
     <g transform="translate(95.026723 33.603614) scale(0.12 -0.12)">
      <use xlink:href="#DejaVuSans-31"/>
      <use xlink:href="#DejaVuSans-38" x="63.623047"/>
     </g>
    </g>
   </g>
   <g id="text_20">
    <g clip-path="url(#p4674f35e17)">
     <!-- 19 -->
     <g transform="translate(74.814891 63.762914) scale(0.12 -0.12)">
      <use xlink:href="#DejaVuSans-31"/>
      <use xlink:href="#DejaVuSans-39" x="63.623047"/>
     </g>
    </g>
   </g>
  </g>
 </g>
 <defs>
  <clipPath id="p4674f35e17">
   <rect x="7.2" y="7.2" width="357.12" height="266.112"/>
  </clipPath>
 </defs>
</svg>
